<?xml version="1.0" encoding="UTF-8" standalone="no"?>
<!-- Created with Inkscape (http://www.inkscape.org/) -->

<svg
   xmlns:dc="http://purl.org/dc/elements/1.1/"
   xmlns:cc="http://creativecommons.org/ns#"
   xmlns:rdf="http://www.w3.org/1999/02/22-rdf-syntax-ns#"
   xmlns:svg="http://www.w3.org/2000/svg"
   xmlns="http://www.w3.org/2000/svg"
   xmlns:sodipodi="http://sodipodi.sourceforge.net/DTD/sodipodi-0.dtd"
   xmlns:inkscape="http://www.inkscape.org/namespaces/inkscape"
   width="200mm"
   height="200mm"
   viewBox="0 0 200 200"
   version="1.1"
   id="svg8"
   inkscape:version="0.92.4 (5da689c313, 2019-01-14)"
   sodipodi:docname="EmotionWheelWithTexr.svg">
  <defs
     id="defs2">
    <inkscape:path-effect
       effect="bspline"
       id="path-effect821"
       is_visible="true"
       weight="33.333333"
       steps="2"
       helper_size="0"
       apply_no_weight="true"
       apply_with_weight="true"
       only_selected="false" />
  </defs>
  <sodipodi:namedview
     id="base"
     pagecolor="#ffffff"
     bordercolor="#666666"
     borderopacity="1.0"
     inkscape:pageopacity="0.0"
     inkscape:pageshadow="2"
     inkscape:zoom="0.7"
     inkscape:cx="550.51948"
     inkscape:cy="300.87737"
     inkscape:document-units="mm"
     inkscape:current-layer="layer1"
     showgrid="false"
     showguides="true"
     inkscape:window-width="1842"
     inkscape:window-height="1057"
     inkscape:window-x="70"
     inkscape:window-y="-8"
     inkscape:window-maximized="1" />
  <metadata
     id="metadata5">
    <rdf:RDF>
      <cc:Work
         rdf:about="">
        <dc:format>image/svg+xml</dc:format>
        <dc:type
           rdf:resource="http://purl.org/dc/dcmitype/StillImage" />
        <dc:title />
      </cc:Work>
    </rdf:RDF>
  </metadata>
  <g
     inkscape:label="Layer 1"
     inkscape:groupmode="layer"
     id="layer1"
     transform="translate(0,-97)">
    <ellipse
       style="opacity:1;fill:none;fill-opacity:1;stroke:#000000;stroke-width:2.02877307;stroke-linecap:square;stroke-linejoin:miter;stroke-miterlimit:4;stroke-dasharray:none;stroke-dashoffset:0;stroke-opacity:1;paint-order:markers stroke fill"
       id="path815"
       cx="100"
       cy="197"
       rx="98.985619"
       ry="98.985611" />
    <path
       id="use4700"
       transform="matrix(0.90097027,-0.43388082,0.3362237,0.6981815,-50.85898,134.21839)"
       style="fill:none;stroke:#000000;stroke-width:1.13028681;stroke-linecap:butt;stroke-linejoin:miter;stroke-miterlimit:4;stroke-dasharray:none;stroke-dashoffset:0;stroke-opacity:1"
       inkscape:path-effect="#path-effect821"
       inkscape:original-d="m 109.5805,158.01984 c 2.7e-4,-42.5852 2.7e-4,-85.170149 0,-127.754828 M 109.58031,158.0199 C 95.262296,119.65181 80.944122,81.284102 66.625797,42.916787 M 109.58015,158.02006 C 83.779717,131.46837 57.979264,104.9171 32.178806,78.366278 M 109.58007,158.02028 C 77.407309,148.54388 45.234678,139.06787 13.06219,129.59225 m 96.51788,28.42829 c -32.17287,9.4758 -64.345489,18.95189 -96.517843,28.42825 M 109.58016,158.02076 C 83.77942,184.57197 57.979002,211.12329 32.178917,237.67472 M 109.58031,158.02093 C 95.261863,196.38874 80.943742,234.75648 66.625955,273.12413 M 109.5805,158.02098 c -2.1e-4,42.5852 -1.5e-4,85.17014 1.8e-4,127.75482 m 1e-5,-127.75488 c 14.31806,38.36805 28.63629,76.73573 42.95467,115.10301 M 109.58085,158.02076 c 25.80047,26.55164 51.60096,53.10284 77.40145,79.65361 m -77.40137,-79.65383 c 32.17277,9.47633 64.34542,18.95227 96.51792,28.42781 m -96.51792,-28.42806 c 32.17286,-9.47588 64.34547,-18.95203 96.51781,-28.42847 m -96.51789,28.42823 c 25.8007,-26.55126 51.60108,-53.10264 77.40113,-79.654125 M 109.58069,158.0199 c 14.3184,-38.36785 28.63647,-76.735623 42.9542,-115.103304"
       d="m 109.5805,158.01984 c 0,-42.5852 0,-85.170149 0,-127.754828 M 109.58031,158.0199 C 95.262032,119.65191 80.943859,81.2842 66.625797,42.916787 M 109.58015,158.02006 C 83.779495,131.46859 57.97904,104.91732 32.178806,78.366278 M 109.58007,158.02028 C 77.407214,148.5442 45.234583,139.06819 13.06219,129.59225 m 96.51788,28.42829 c -32.172773,9.47613 -64.345393,18.95222 -96.517843,28.42825 M 109.58016,158.02076 C 83.779642,184.57219 57.979226,211.12351 32.178917,237.67472 M 109.58031,158.02093 C 95.262126,196.38884 80.944006,234.75658 66.625955,273.12413 M 109.5805,158.02098 c 6e-5,42.5852 1.2e-4,85.17014 1.8e-4,127.75482 m 1e-5,-127.75488 c 14.31833,38.36795 28.63656,76.73563 42.95467,115.10301 M 109.58085,158.02076 c 25.8007,26.55142 51.60118,53.10263 77.40145,79.65361 m -77.40137,-79.65383 c 32.17287,9.476 64.34552,18.95194 96.51792,28.42781 m -96.51792,-28.42806 c 32.17276,-9.4762 64.34537,-18.95236 96.51781,-28.42847 m -96.51789,28.42823 c 25.80048,-26.55148 51.60086,-53.10286 77.40113,-79.654125 M 109.58069,158.0199 c 14.31813,-38.36795 28.6362,-76.735723 42.9542,-115.103304" />
    <g
       aria-label="Hirm"
       transform="matrix(-0.08052948,0.25203043,-0.25203043,-0.08052948,170.95673,8.1977609)"
       style="font-style:normal;font-weight:normal;font-size:40px;line-height:1.25;font-family:sans-serif;letter-spacing:0px;word-spacing:0px;fill:#000000;fill-opacity:1;stroke:none"
       id="flowRoot4740" />
    <g
       aria-label="Vastikus"
       transform="matrix(-0.17938996,0.19448285,-0.19448285,-0.17938996,47.755405,60.236444)"
       style="font-style:normal;font-weight:normal;font-size:40px;line-height:1.25;font-family:sans-serif;letter-spacing:0px;word-spacing:0px;fill:#000000;fill-opacity:1;stroke:none"
       id="flowRoot4768" />
    <g
       aria-label="Rõõm"
       transform="matrix(-0.22984826,0.13105004,-0.13105004,-0.22984826,103.30003,78.637536)"
       style="font-style:normal;font-weight:normal;font-size:40px;line-height:1.25;font-family:sans-serif;letter-spacing:0px;word-spacing:0px;fill:#000000;fill-opacity:1;stroke:none"
       id="flowRoot4776" />
    <g
       aria-label="Kurbus"
       transform="matrix(-0.26453889,-0.00484922,0.00484922,-0.26453889,172.9463,110.03774)"
       style="font-style:normal;font-weight:normal;font-size:40px;line-height:1.25;font-family:sans-serif;letter-spacing:0px;word-spacing:0px;fill:#000000;fill-opacity:1;stroke:none"
       id="flowRoot4784" />
    <g
       aria-label="Üllatus"
       transform="matrix(-0.23673528,-0.1181556,0.1181556,-0.23673528,187.97152,170.42073)"
       style="font-style:normal;font-weight:normal;font-size:40px;line-height:1.25;font-family:sans-serif;letter-spacing:0px;word-spacing:0px;fill:#000000;fill-opacity:1;stroke:none"
       id="flowRoot4792" />
    <g
       aria-label="Neutraalsus"
       transform="matrix(-0.18744155,-0.18673512,0.18673512,-0.18744155,178.38383,223.61146)"
       style="font-style:normal;font-weight:normal;font-size:40px;line-height:1.25;font-family:sans-serif;letter-spacing:0px;word-spacing:0px;fill:#000000;fill-opacity:1;stroke:none"
       id="flowRoot4800" />
    <g
       aria-label="Ärevus"
       transform="matrix(-0.11124574,-0.24005983,0.24005983,-0.11124574,269.07968,286.3869)"
       style="font-style:normal;font-weight:normal;font-size:40px;line-height:1.25;font-family:sans-serif;letter-spacing:0px;word-spacing:0px;fill:#000000;fill-opacity:1;stroke:none"
       id="flowRoot4808">
      <path
         id="path970"
         style=""
         d="m 365.03711,-488.17671 q 0,2.98828 -2.48047,4.90234 -2.46094,1.91407 -6.73828,1.91407 -2.42188,0 -4.45313,-0.56641 -2.01171,-0.58594 -3.3789,-1.26953 v -4.12109 h 0.19531 q 1.73828,1.30859 3.86719,2.08984 2.1289,0.76172 4.08203,0.76172 2.42187,0 3.78906,-0.78125 1.36719,-0.78125 1.36719,-2.46094 0,-1.28906 -0.74219,-1.95312 -0.74219,-0.66407 -2.85156,-1.13282 -0.78125,-0.17578 -2.05078,-0.41015 -1.25,-0.23438 -2.28516,-0.50782 -2.87109,-0.76171 -4.08203,-2.22656 -1.19141,-1.48437 -1.19141,-3.63281 0,-1.34766 0.54688,-2.53906 0.56641,-1.19141 1.69922,-2.12891 1.09375,-0.91797 2.77344,-1.44531 1.69921,-0.54688 3.78906,-0.54688 1.95312,0 3.94531,0.48828 2.01172,0.46875 3.33984,1.15235 v 3.92578 h -0.19531 q -1.40625,-1.03516 -3.41797,-1.73828 -2.01172,-0.72266 -3.94531,-0.72266 -2.01172,0 -3.39844,0.78125 -1.38672,0.76172 -1.38672,2.28516 0,1.34765 0.83985,2.03125 0.82031,0.68359 2.65625,1.11328 1.01562,0.23437 2.26562,0.46875 1.26953,0.23437 2.10938,0.42969 2.55859,0.58593 3.94531,2.01172 1.38672,1.44531 1.38672,3.82812 z m -22.8125,6.28906 h -3.67188 v -2.42187 q -1.85546,1.46484 -3.55468,2.24609 -1.69922,0.78125 -3.75,0.78125 -3.4375,0 -5.35157,-2.08984 -1.91406,-2.10938 -1.91406,-6.17188 v -14.16015 h 3.67188 v 12.42187 q 0,1.66016 0.15625,2.85156 0.15625,1.17188 0.66406,2.01172 0.52734,0.85938 1.36719,1.25 0.83984,0.39063 2.4414,0.39063 1.42578,0 3.10547,-0.74219 1.69922,-0.74219 3.16406,-1.89453 v -16.28906 h 3.67188 z m -22.89063,-21.8164 -8.82812,21.8164 h -3.69141 l -8.76953,-21.8164 h 3.98438 l 6.75781,17.36328 6.69922,-17.36328 z m -24.43359,11.28906 h -16.07422 q 0,2.01172 0.60547,3.51562 0.60547,1.48438 1.66016,2.44141 1.01562,0.9375 2.40234,1.40625 1.40625,0.46875 3.08594,0.46875 2.22656,0 4.47265,-0.87891 2.26563,-0.89843 3.22266,-1.75781 h 0.19531 v 4.00391 q -1.85547,0.78125 -3.78906,1.30859 -1.93359,0.52735 -4.0625,0.52735 -5.42969,0 -8.47656,-2.92969 -3.04688,-2.94922 -3.04688,-8.35938 0,-5.35156 2.91016,-8.49609 2.92969,-3.14453 7.69531,-3.14453 4.41406,0 6.79688,2.57812 2.40234,2.57813 2.40234,7.32422 z m -3.57422,-2.8125 q -0.0195,-2.89063 -1.46484,-4.47266 -1.42578,-1.58203 -4.35547,-1.58203 -2.94922,0 -4.70703,1.73828 -1.73828,1.73828 -1.97266,4.31641 z m -18.18359,-4.47266 h -0.19531 q -0.82032,-0.19531 -1.60157,-0.27343 -0.76172,-0.0977 -1.8164,-0.0977 -1.69922,0 -3.28125,0.76172 -1.58203,0.74219 -3.04688,1.93359 v 15.48828 h -3.67187 v -21.8164 h 3.67187 v 3.22265 q 2.1875,-1.75781 3.84766,-2.48047 1.67969,-0.74218 3.41797,-0.74218 0.95703,0 1.38672,0.0586 0.42968,0.0391 1.28906,0.17578 z m -17.73438,17.8125 h -4.12109 l -2.85156,-8.10547 h -12.57813 l -2.85156,8.10547 h -3.92578 l 10.58594,-29.08203 h 5.15625 z m -8.16406,-11.42578 -5.09766,-14.27734 -5.11718,14.27734 z m 0.95703,-21.32812 h -3.88672 v -3.8086 h 3.88672 z m -8.0664,0 h -3.88672 v -3.8086 h 3.88672 z m 217.79788,112.15511 q 1.03403,2.80367 -0.63087,5.45782 -1.64659,2.64737 -5.65969,4.12747 -2.27225,0.83804 -4.37401,1.0095 -2.09019,0.14638 -3.60947,-0.0219 l -1.42602,-3.8665 0.18324,-0.0676 q 2.08371,0.62625 4.35144,0.62257 2.26097,-0.022 4.09343,-0.69785 2.27226,-0.83805 3.28465,-2.04412 1.01239,-1.20608 0.43116,-2.782 -0.44605,-1.20943 -1.37218,-1.57564 -0.92611,-0.36622 -3.06739,-0.0761 -0.79381,0.10541 -2.06601,0.32481 -1.25388,0.21264 -2.31971,0.3143 -2.9573,0.27882 -4.60032,-0.67651 -1.63144,-0.98041 -2.37486,-2.99612 -0.46633,-1.2644 -0.36551,-2.57144 0.11915,-1.3138 0.85758,-2.58538 0.70853,-1.23973 2.10198,-2.31572 1.40501,-1.10107 3.36575,-1.82422 1.83246,-0.67584 3.87054,-0.90708 2.04964,-0.25633 3.53227,-0.0745 l 1.35844,3.68325 -0.18325,0.0676 q -1.67757,-0.48459 -3.80832,-0.44817 -2.1375,0.0181 -3.95164,0.68719 -1.88745,0.69611 -2.91816,1.90895 -1.03747,1.19451 -0.51031,2.62383 0.46634,1.26441 1.49084,1.61516 1.00617,0.35751 2.87738,0.12536 1.03398,-0.13154 2.28786,-0.34419 1.27221,-0.2194 2.12775,-0.32676 2.60329,-0.33561 4.3977,0.52224 1.80118,0.87617 2.62571,3.11178 z m -19.227,13.79439 -3.44503,1.27058 -0.83805,-2.27226 q -1.23396,2.0164 -2.55787,3.33737 -1.32391,1.32097 -3.248,2.0306 -3.22514,1.18949 -5.74411,-0.10893 -2.52573,-1.31673 -3.93148,-5.12826 l -4.89986,-13.28538 3.44504,-1.27059 4.29836,11.65448 q 0.57446,1.5576 1.13333,2.62134 0.5521,1.04541 1.31915,1.65766 0.79213,0.6238 1.71527,0.69969 0.92312,0.0759 2.42574,-0.47831 1.33771,-0.49337 2.6568,-1.77093 1.33743,-1.28432 2.31304,-2.87236 l -5.63653,-15.28277 3.44504,-1.27059 z m -24.09251,2.18253 q 1.03404,2.80367 -0.63087,5.45782 -1.64658,2.64737 -5.65968,4.12747 -2.27227,0.83804 -4.37403,1.0095 -2.09019,0.14639 -3.60946,-0.0219 l -1.42603,-3.8665 0.18325,-0.0676 q 2.08371,0.62625 4.35143,0.62257 2.26097,-0.022 4.09344,-0.69785 2.27226,-0.83804 3.28465,-2.04412 1.01239,-1.20608 0.43116,-2.782 -0.44605,-1.20943 -1.37218,-1.57564 -0.92612,-0.36622 -3.06738,-0.0761 -0.79382,0.1054 -2.06603,0.32481 -1.25388,0.21264 -2.3197,0.3143 -2.95731,0.27882 -4.60032,-0.67651 -1.63144,-0.98041 -2.37487,-2.99612 -0.46633,-1.2644 -0.3655,-2.57144 0.11915,-1.3138 0.85757,-2.58538 0.70854,-1.23973 2.10198,-2.31572 1.40501,-1.10106 3.36575,-1.82422 1.83247,-0.67584 3.87055,-0.90708 2.04964,-0.25633 3.53226,-0.0745 l 1.35844,3.68325 -0.18324,0.0676 q -1.67757,-0.4846 -3.80832,-0.44817 -2.1375,0.0181 -3.95164,0.68718 -1.88744,0.69612 -2.91816,1.90896 -1.03747,1.19451 -0.51031,2.62384 0.46633,1.2644 1.49083,1.61515 1.00619,0.3575 2.87738,0.12536 1.03399,-0.13154 2.28787,-0.34419 1.27221,-0.21939 2.12775,-0.32676 2.60329,-0.33561 4.39771,0.52224 1.80117,0.87617 2.6257,3.11178 z m -19.3003,13.82142 -3.44504,1.27059 -10.51611,-28.51319 3.44504,-1.27058 z m -10.15187,3.74417 -3.42671,1.26383 -0.80425,-2.18064 q -0.34323,0.48048 -0.92167,1.33916 -0.56689,0.83359 -1.17822,1.43377 -0.70582,0.73912 -1.72225,1.42624 -1.00967,0.70546 -2.51229,1.25965 -2.76703,1.02053 -5.36696,-0.1023 -2.59993,-1.12284 -3.64749,-3.96316 -0.85832,-2.32723 -0.39594,-4.12151 0.47394,-1.81936 2.0206,-3.32657 1.56499,-1.51397 4.07728,-2.77362 2.51229,-1.25965 5.46347,-2.51463 l -0.19599,-0.53141 q -0.43254,-1.17278 -1.13786,-1.78698 -0.687,-0.62095 -1.61884,-0.77689 -0.88843,-0.15113 -1.96868,0.0808 -1.08025,0.23187 -2.19805,0.64413 -1.35603,0.50013 -2.8884,1.48164 -1.53914,0.96318 -3.06657,2.29677 l -0.18324,0.0676 -1.29086,-3.50001 q 0.90648,-0.64658 2.69059,-1.6793 1.78411,-1.03272 3.63491,-1.71532 2.16231,-0.7975 3.89172,-1.01899 1.74098,-0.24658 3.2314,0.18214 1.46535,0.41716 2.56343,1.53183 1.09807,1.11467 1.82799,3.09374 z m -5.28528,-3.77546 -2.10187,-5.69897 q -1.54211,0.67288 -3.61853,1.64683 -2.05808,0.96722 -3.17574,1.77497 -1.32886,0.9689 -1.91393,2.20473 -0.59183,1.2175 -0.0174,2.77509 0.64881,1.75917 2.0428,2.2651 1.38724,0.48759 3.56787,-0.31666 1.81415,-0.66908 3.05995,-1.91961 1.23904,-1.26886 2.15681,-2.73148 z m -17.29071,12.10184 -3.42671,1.26383 -0.80425,-2.18064 q -0.34323,0.48048 -0.92167,1.33916 -0.56689,0.83359 -1.17822,1.43377 -0.70582,0.73912 -1.72225,1.42624 -1.00967,0.70546 -2.51229,1.25965 -2.76703,1.02053 -5.36696,-0.1023 -2.59993,-1.12284 -3.64749,-3.96316 -0.85832,-2.32723 -0.39594,-4.12151 0.47394,-1.81936 2.0206,-3.32657 1.56499,-1.51397 4.07728,-2.77362 2.51229,-1.25965 5.46347,-2.51463 l -0.19599,-0.53141 q -0.43254,-1.17278 -1.13786,-1.78698 -0.687,-0.62095 -1.61884,-0.77689 -0.88843,-0.15113 -1.96868,0.0807 -1.08025,0.23187 -2.19805,0.64414 -1.35603,0.50012 -2.8884,1.48163 -1.53914,0.96319 -3.06657,2.29677 l -0.18324,0.0676 -1.29086,-3.50001 q 0.90648,-0.64658 2.69059,-1.6793 1.78412,-1.03272 3.63491,-1.71532 2.16231,-0.79749 3.89172,-1.01899 1.74098,-0.24658 3.23141,0.18215 1.46534,0.41715 2.56342,1.53182 1.09807,1.11467 1.82799,3.09374 z m -5.28528,-3.77546 -2.10187,-5.69897 q -1.54211,0.67289 -3.61853,1.64683 -2.05808,0.96722 -3.17574,1.77497 -1.32886,0.9689 -1.91393,2.20473 -0.59183,1.2175 -0.0174,2.77509 0.64881,1.75917 2.0428,2.2651 1.38724,0.4876 3.56787,-0.31666 1.81415,-0.66908 3.05995,-1.91961 1.23904,-1.26886 2.15681,-2.73148 z m -19.40464,-6.10386 -0.18324,0.0676 q -0.83723,0.1006 -1.59725,0.29764 -0.74847,0.17192 -1.738,0.53687 -1.59424,0.58799 -2.81496,1.85008 -1.22748,1.24377 -2.18957,2.86845 l 5.35944,14.53147 -3.44504,1.27059 -7.54916,-20.46866 3.44503,-1.27058 1.11515,3.02357 q 1.4441,-2.40617 2.75163,-3.65864 1.3191,-1.27757 2.95,-1.87907 0.89791,-0.33116 1.32133,-0.42487 0.41667,-0.112 1.27025,-0.28113 z m -10.85422,22.78038 q -0.87659,0.61475 -1.97021,1.20545 -1.07531,0.58394 -1.97322,0.9151 -3.13352,1.1557 -5.38618,0.0713 -2.25268,-1.08437 -3.62464,-4.80428 l -4.0145,-10.88485 -2.32723,0.85832 -1.06783,-2.8953 2.32723,-0.85832 -2.16946,-5.88221 3.44504,-1.27059 2.16946,5.88222 7.10997,-2.62227 1.06783,2.8953 -7.10997,2.62227 3.44003,9.32725 q 0.59475,1.61257 1.00597,2.50178 0.40446,0.87087 1.13486,1.49662 0.67348,0.58431 1.49823,0.67565 0.83631,0.0663 2.28396,-0.46764 0.84294,-0.31089 1.67131,-0.88704 0.82161,-0.59446 1.16393,-0.90807 l 0.18325,-0.0676 z m -17.34084,6.60376 -3.44504,1.27059 -0.83805,-2.27227 q -1.23396,2.0164 -2.55787,3.33737 -1.32391,1.32097 -3.248,2.0306 -3.22514,1.18949 -5.74411,-0.10892 -2.52572,-1.31674 -3.93148,-5.12827 l -4.89986,-13.28539 3.44504,-1.27058 4.29836,11.65448 q 0.57447,1.5576 1.13333,2.62135 0.5521,1.0454 1.31916,1.65765 0.79213,0.6238 1.71526,0.69969 0.92313,0.0759 2.42575,-0.47832 1.3377,-0.49336 2.6568,-1.77092 1.33743,-1.28432 2.31303,-2.87236 l -5.63652,-15.28277 3.44503,-1.27059 z m -25.83397,-1.69255 -15.0812,5.56219 q 0.69612,1.88744 1.78458,3.08893 1.08171,1.18316 2.4024,1.71611 1.27729,0.52815 2.74054,0.48809 1.48158,-0.0468 3.0575,-0.62804 2.08901,-0.77046 3.89222,-2.37228 1.81478,-1.62691 2.41531,-2.76437 l 0.18325,-0.0676 1.38548,3.75656 q -1.47051,1.37504 -3.10218,2.53888 -1.63166,1.16386 -3.62905,1.90053 -5.09425,1.87884 -8.96667,0.18445 -3.87917,-1.71271 -5.75125,-6.78864 -1.85181,-5.02096 -0.20954,-8.97824 1.66059,-3.96403 6.13181,-5.61309 4.14138,-1.5274 7.2691,0.0669 3.14604,1.58756 4.78834,6.04046 z m -4.32663,-1.40196 q -1.01857,-2.70528 -2.92202,-3.68946 -1.88514,-0.99094 -4.63384,0.0228 -2.76703,1.02052 -3.81474,3.25968 -1.0294,2.23239 -0.35718,4.73235 z m -16.14584,20.17305 -4.48954,1.65582 -21.93944,-19.63701 9.00222,24.40846 -3.39006,1.25031 -10.0633,-27.28544 5.62567,-2.07484 20.01934,17.93037 -8.21825,-22.28279 3.39006,-1.25031 z m 152.67475,30.06961 q 1.86485,2.33499 1.12113,5.37856 -0.72847,3.03136 -4.07071,5.70065 -1.89241,1.51137 -3.83307,2.33639 -1.93757,0.79758 -3.43247,1.11663 l -2.57177,-3.22015 0.15261,-0.12189 q 2.17489,-0.0623 4.32593,-0.78036 2.13884,-0.73335 3.66498,-1.9522 1.89241,-1.51138 2.47317,-2.97503 0.58075,-1.46365 -0.46746,-2.77613 -0.80444,-1.00725 -1.79878,-1.06297 -0.99434,-0.0557 -2.93509,0.89436 -0.72016,0.35018 -1.85841,0.9593 -1.123,0.59693 -2.10248,1.02926 -2.71878,1.19652 -4.57913,0.8076 -1.85727,-0.41636 -3.198,-2.09512 -0.84101,-1.05303 -1.15719,-2.32526 -0.30092,-1.28441 -8.1e-4,-2.72389 0.28178,-1.39984 1.26517,-2.86011 0.98647,-1.48771 2.61943,-2.79188 1.52614,-1.21886 3.38752,-2.08055 1.86444,-0.88914 3.32881,-1.18382 l 2.44989,3.06754 -0.15261,0.12189 q -1.74481,0.0687 -3.75552,0.77472 -2.0229,0.69075 -3.53378,1.89741 -1.57192,1.25541 -2.16794,2.73125 -0.6082,1.46058 0.3425,2.65097 0.84101,1.05304 1.92385,1.06308 1.06757,0.0222 2.77029,-0.78774 0.93986,-0.45066 2.06284,-1.04759 1.13826,-0.60911 1.91638,-0.98061 2.3649,-1.13885 4.33822,-0.89015 1.98551,0.26395 3.4725,2.12584 z m -13.90059,19.15035 -2.86914,2.29144 -1.51138,-1.89241 q -0.5357,2.30251 -1.3759,3.97336 -0.8402,1.67086 -2.44265,2.95065 -2.686,2.14518 -5.48578,1.70669 -2.81198,-0.45375 -5.34719,-3.62812 l -8.83667,-11.06451 2.86914,-2.29144 7.75189,9.70624 q 1.03603,1.29722 1.90162,2.13066 0.8534,0.81817 1.7743,1.15751 0.94835,0.34241 1.84837,0.12354 0.9,-0.21889 2.15144,-1.21834 1.11408,-0.88977 1.96339,-2.51791 0.86459,-1.64033 1.29006,-3.45489 l -10.16521,-12.728 2.86914,-2.29144 z m -17.73354,13.91292 q -0.63821,0.85966 -1.48998,1.76488 -0.83651,0.89304 -1.58432,1.49028 -2.6097,2.08424 -5.0893,1.76497 -2.47961,-0.31928 -4.95387,-3.41733 l -7.23998,-9.06527 -1.93819,1.54794 -1.92579,-2.4113 1.9382,-1.54794 -3.91251,-4.8989 2.86914,-2.29144 3.91251,4.8989 5.92142,-4.72914 1.92578,2.4113 -5.92142,4.72914 6.20395,7.76804 q 1.07259,1.34301 1.74307,2.05733 0.65829,0.69905 1.54866,1.06276 0.82329,0.34231 1.6348,0.16911 0.81459,-0.20064 2.02024,-1.16353 0.70203,-0.56068 1.30664,-1.3685 0.59243,-0.82309 0.81849,-1.22859 l 0.15261,-0.12188 z m -14.28486,11.65858 -2.85388,2.27925 -1.45043,-1.81611 q -0.17433,0.56416 -0.45273,1.56137 -0.27532,0.96975 -0.66638,1.732 -0.43695,0.92387 -1.18507,1.89629 -0.73593,0.98768 -1.98736,1.98714 -2.30447,1.84046 -5.12577,1.59412 -2.8213,-0.24635 -4.71051,-2.61186 -1.54795,-1.9382 -1.67454,-3.78677 -0.12351,-1.87601 0.86941,-3.79381 1.00818,-1.93 2.99554,-3.91714 1.98736,-1.98714 4.39272,-4.10814 l -0.35346,-0.44258 q -0.78007,-0.97673 -1.643,-1.33738 -0.84767,-0.37282 -1.78117,-0.22718 -0.89079,0.13653 -1.84294,0.69699 -0.95214,0.56047 -1.88309,1.30397 -1.12934,0.90195 -2.27436,2.31633 -1.1572,1.39912 -2.18658,3.14608 l -0.15261,0.12189 -2.32801,-2.91493 q 0.65655,-0.89929 2.02434,-2.4416 1.36779,-1.54231 2.90919,-2.77335 1.80085,-1.43824 3.37236,-2.19342 1.57458,-0.78262 3.12417,-0.8454 1.52214,-0.0658 2.91552,0.64601 1.39339,0.71186 2.70975,2.36009 z m -6.20572,-1.91764 -3.79063,-4.74629 q -1.25151,1.12455 -2.91523,2.70319 -1.64844,1.56648 -2.45463,2.68527 -0.95583,1.33828 -1.12167,2.69551 -0.17802,1.34197 0.858,2.63919 1.1701,1.46509 2.6525,1.50597 1.47021,0.0256 3.28632,-1.42482 1.51087,-1.20666 2.29914,-2.78605 0.77608,-1.59466 1.1862,-3.27197 z m -12.74892,17.05577 -2.86914,2.29143 -18.96533,-23.74672 2.86915,-2.29144 z m -8.60742,6.87431 -2.86914,2.29144 -18.96533,-23.74672 2.86914,-2.29144 z m -15.74354,-2.37387 q 1.97453,2.47234 2.89993,4.75775 0.92847,2.25797 0.66738,4.46615 -0.24879,2.09838 -1.39412,3.88794 -1.14533,1.78957 -3.23614,3.45939 -2.13659,1.70639 -4.17475,2.40933 -2.03816,0.70293 -3.99929,0.4695 -2.23563,-0.26417 -4.19891,-1.5957 -1.94801,-1.34372 -4.00787,-3.9229 l -10.85997,-13.5979 3.02176,-2.41332 10.98185,13.75051 q 1.47481,1.84663 2.57219,2.71991 1.11264,0.86109 2.40258,1.25564 1.46375,0.4557 3.01057,0.0452 1.56209,-0.4227 3.1798,-1.71468 1.63296,-1.30417 2.38754,-2.70668 0.74238,-1.41776 0.6247,-2.97349 -0.0996,-1.34525 -0.74513,-2.65435 -0.64251,-1.33655 -1.97105,-3.00004 l -11.04279,-13.82682 3.02175,-2.41333 z m -17.19567,-13.23709 -3.03702,2.42552 -2.37676,-2.97597 3.03702,-2.42552 z m -6.30296,5.03386 -3.03701,2.42551 -2.37676,-2.97597 3.03702,-2.42551 z m 188.43278,-9.10796 q 2.68782,1.30592 3.32544,4.37347 0.64614,3.04997 -1.22312,6.89725 -1.0584,2.17836 -2.45554,3.75785 -1.40617,1.55339 -2.61852,2.48437 l -3.70673,-1.80098 0.0854,-0.17567 q 1.93667,-0.99164 3.56974,-2.56507 1.61549,-1.58197 2.46904,-3.33872 1.05839,-2.17837 0.95317,-3.74951 -0.10521,-1.57114 -1.61602,-2.30519 -1.15945,-0.56333 -2.08109,-0.18597 -0.92164,0.37735 -2.26508,2.06979 -0.49954,0.62588 -1.26514,1.66534 -0.75709,1.02189 -1.4554,1.83347 -1.93985,2.24954 -3.78661,2.69856 -1.85578,0.42292 -3.78821,-0.51598 -1.21215,-0.58894 -2.04477,-1.60149 -0.8241,-1.03012 -1.17228,-2.45874 -0.34769,-1.38494 -0.088,-3.1262 0.2507,-1.76736 1.164,-3.64708 0.85354,-1.75674 2.16334,-3.33524 1.30077,-1.6046 2.49604,-2.50045 l 3.53106,1.71562 -0.0854,0.17568 q -1.54562,0.81248 -3.0572,2.31465 -1.52915,1.49364 -2.37416,3.23282 -0.87915,1.80945 -0.78247,3.39816 0.0791,1.58017 1.44938,2.24593 1.21216,0.58895 2.19404,0.13229 0.97335,-0.4391 2.16217,-1.90266 0.65465,-0.81108 1.41173,-1.83297 0.76562,-1.03946 1.30831,-1.70951 1.64517,-2.04527 3.53361,-2.66948 1.90601,-0.61566 4.04924,0.42566 z m -4.31267,23.26722 -1.60466,3.30268 -2.17837,-1.0584 q 0.50669,2.30907 0.4668,4.17886 -0.0399,1.86979 -0.93611,3.71437 -1.50223,3.09187 -4.21842,3.9002 -2.73376,0.79978 -6.38779,-0.97559 l -12.73642,-6.1882 1.60466,-3.30268 11.17291,5.42854 q 1.49324,0.72551 2.63314,1.10564 1.12233,0.37158 2.09966,0.28185 1.00342,-0.0988 1.72179,-0.68345 0.71837,-0.5847 1.41828,-2.02523 0.62309,-1.28242 0.68957,-3.11757 0.075,-1.85272 -0.3213,-3.67387 l -14.65127,-7.11856 1.60467,-3.30268 z m -20.36546,16.57514 q 2.45944,1.19496 4.08558,2.85363 1.63467,1.6411 2.39793,3.46682 0.78181,1.92159 0.759,3.75624 -0.0404,1.82612 -0.911,3.618 -0.81087,1.66891 -1.82093,2.71989 -0.99251,1.05951 -2.24902,1.94731 l 0.81109,0.65466 -1.50224,3.09187 -27.33498,-13.28115 1.60466,-3.30268 9.76752,4.7457 q -0.4676,-1.94263 -0.42821,-3.85609 0.0218,-1.92199 0.96926,-3.87198 1.69002,-3.47836 5.33332,-4.18366 3.65183,-0.72288 8.51802,1.64144 z m -1.56809,3.45075 q -3.51349,-1.70709 -5.88628,-1.42679 -2.39036,0.27177 -3.64507,2.85418 -0.69991,1.44054 -0.78445,3.22348 -0.10212,1.77441 0.26711,3.51725 l 11.24318,5.46268 q 1.31526,-1.09812 2.04773,-1.97996 0.741,-0.89942 1.36408,-2.18185 1.33153,-2.74052 0.29078,-5.15707 -1.0498,-2.44266 -4.89708,-4.31192 z m -14.41087,14.01792 -0.0854,0.17568 q -0.53417,0.65248 -0.94585,1.32103 -0.42076,0.64244 -0.88167,1.59108 -0.74259,1.52837 -0.74883,3.28422 -0.0238,1.74731 0.40765,3.58553 l 13.93101,6.76861 -1.60466,3.30269 -19.62287,-9.5341 1.60467,-3.30268 2.89863,1.40835 q -0.62511,-2.73575 -0.54959,-4.54479 0.0665,-1.83515 0.82614,-3.39866 0.41824,-0.8608 0.65873,-1.22168 0.22294,-0.3694 0.72144,-1.08263 z m 6.91421,26.52882 -1.60466,3.30268 -2.17838,-1.0584 q 0.50669,2.30907 0.46681,4.17886 -0.0399,1.86979 -0.93611,3.71437 -1.50224,3.09187 -4.21842,3.90019 -2.73376,0.79979 -6.38779,-0.97558 l -12.73642,-6.1882 1.60466,-3.30268 11.17291,5.42854 q 1.49324,0.72551 2.63314,1.10564 1.12232,0.37158 2.09965,0.28185 1.00342,-0.0988 1.7218,-0.68345 0.71837,-0.5847 1.41828,-2.02523 0.62309,-1.28242 0.68957,-3.11757 0.075,-1.85272 -0.3213,-3.67387 l -14.65127,-7.11856 1.60466,-3.30269 z m -9.26949,19.07827 -2.19361,4.51484 -16.67461,4.68824 1.51241,3.94858 8.87157,4.3104 -1.69001,3.47836 -26.15797,-12.70928 1.69002,-3.47836 13.64993,6.63204 -7.47881,-19.33332 2.04851,-4.21619 6.62116,17.65718 z m 132.05211,-64.29394 0.30895,3.65886 -12.37783,1.04518 q -1.40126,0.11832 -2.69371,0.36466 -1.2941,0.22688 -2.03806,0.70132 -0.79907,0.51829 -1.15657,1.39131 -0.35749,0.87302 -0.22438,2.44944 0.12983,1.5375 1.03813,3.00926 0.88884,1.4734 2.20585,2.91066 0.4427,-0.0962 1.04273,-0.18606 0.58058,-0.0882 1.16443,-0.13752 l 13.91533,-1.17501 0.30895,3.65885 -12.37783,1.04518 q -1.44018,0.12161 -2.71317,0.36631 -1.2941,0.22688 -2.03806,0.70132 -0.79907,0.51829 -1.13711,1.38966 -0.35749,0.87302 -0.22438,2.44944 0.12654,1.49858 0.99427,2.95416 0.8661,1.43613 2.14089,2.83774 l 16.23131,-1.37057 0.30896,3.65885 -21.73905,1.83565 -0.30895,-3.65885 2.41329,-0.20378 q -1.56535,-1.59269 -2.50627,-3.2185 -0.94255,-1.64528 -1.10525,-3.57202 -0.18734,-2.21867 0.61701,-3.83504 0.8027,-1.63585 2.39288,-2.53455 -2.05569,-2.0609 -3.02757,-3.82131 -0.99135,-1.75876 -1.16719,-3.84119 -0.30238,-3.58101 1.73439,-5.45826 2.01566,-1.89507 5.90806,-2.22374 z m -7.70123,38.32295 q 5.31312,-0.44864 8.61819,2.01638 3.30507,2.46503 3.69126,7.0386 0.38948,4.61249 -2.45545,7.59682 -2.84656,2.96487 -8.15969,3.41351 -5.31312,0.44864 -8.61654,-1.99692 -3.32453,-2.46339 -3.71401,-7.07588 -0.38619,-4.57357 2.47819,-7.55954 2.84493,-2.98433 8.15805,-3.43297 z m 0.31881,3.77562 q -4.22325,0.35662 -6.12707,2.18344 -1.92329,1.82847 -1.67514,4.76723 0.25143,2.97768 2.4541,4.45775 2.18155,1.46226 6.4048,1.10564 4.08702,-0.3451 6.06869,-2.1785 1.9622,-1.83175 1.71241,-4.78998 -0.24651,-2.9193 -2.46862,-4.39772 -2.24323,-1.49625 -6.36917,-1.14786 z m -20.80529,-0.10527 q 2.9763,-0.0357 4.58334,1.12224 1.60704,1.15796 1.78945,3.31824 0.0887,1.05094 -0.20545,1.97742 -0.31364,0.92812 -0.96636,1.78686 -0.75962,0.98538 -1.11409,1.66214 -0.37558,0.65894 -0.31149,1.41796 0.0855,1.01202 1.00398,1.44408 0.91852,0.43206 2.4042,0.38501 l 0.21528,2.54952 q -2.95191,0.0924 -4.56716,-1.16281 -1.61525,-1.25526 -1.78452,-3.25984 -0.0822,-0.9731 0.23147,-1.90122 0.29255,-0.94594 0.92415,-1.82251 0.7207,-0.98209 1.07025,-1.71723 0.32844,-0.75296 0.27421,-1.39521 -0.0838,-0.99256 -1.02508,-1.4619 -0.94292,-0.4888 -2.31019,-0.43215 z m 22.53083,20.54036 q 5.31312,-0.44864 8.61819,2.01639 3.30507,2.46502 3.69126,7.03859 0.38948,4.61249 -2.45544,7.59682 -2.84657,2.96487 -8.15969,3.41351 -5.31312,0.44865 -8.61655,-1.99692 -3.32453,-2.46338 -3.71401,-7.07587 -0.38619,-4.57357 2.4782,-7.55955 2.84492,-2.98433 8.15804,-3.43297 z m 0.31882,3.77563 q -4.22325,0.35661 -6.12707,2.18343 -1.9233,1.82847 -1.67515,4.76723 0.25144,2.97769 2.4541,4.45776 2.18155,1.46225 6.40481,1.10564 4.08701,-0.34511 6.06868,-2.17851 1.96221,-1.83175 1.71242,-4.78997 -0.24651,-2.9193 -2.46863,-4.39773 -2.24323,-1.49625 -6.36916,-1.14785 z m -20.8053,-0.10527 q 2.9763,-0.0357 4.58334,1.12224 1.60704,1.15795 1.78945,3.31823 0.0888,1.05095 -0.20544,1.97743 -0.31364,0.92811 -0.96636,1.78686 -0.75962,0.98538 -1.1141,1.66213 -0.37558,0.65894 -0.31149,1.41796 0.0855,1.01202 1.00398,1.44408 0.91852,0.43206 2.4042,0.38502 l 0.21528,2.54952 q -2.95191,0.0924 -4.56715,-1.16281 -1.61526,-1.25526 -1.78453,-3.25985 -0.0822,-0.9731 0.23148,-1.90122 0.29254,-0.94593 0.92415,-1.8225 0.7207,-0.98209 1.07024,-1.71723 0.32844,-0.75297 0.27421,-1.39521 -0.0838,-0.99256 -1.02508,-1.4619 -0.94291,-0.48881 -2.31018,-0.43216 z m 33.20164,17.38523 0.42235,5.00173 -10.7031,10.66495 0.4585,5.42989 11.5215,-0.97287 0.32539,3.85347 -28.9789,2.446985 -0.68529,-8.115655 q -0.22186,-2.62737 -0.0195,-4.40853 0.18295,-1.77951 0.94042,-3.25473 0.85945,-1.66023 2.30353,-2.6642 1.42298,-1.0218 3.73895,-1.21736 3.13338,-0.26458 5.38786,1.13271 2.235,1.39894 3.53877,4.07216 z m -20.06345,10.76931 q -1.24557,0.10517 -2.1614,0.63332 -0.93695,0.51034 -1.51321,1.57824 -0.49372,0.88452 -0.61085,2.05085 -0.13658,1.16798 -0.005,2.72494 l 0.3829,4.53465 10.93764,-0.92358 -0.32868,-3.8924 q -0.15447,-1.82943 -0.5809,-3.16547 -0.44589,-1.3344 -1.40221,-2.21409 -0.89135,-0.80677 -1.97681,-1.12673 -1.10657,-0.33778 -2.74137,-0.19973 z m 98.22842,-153.39171 q 2.76184,-1.14107 5.47802,0.42055 2.70873,1.54358 4.34204,5.4968 0.92479,2.23836 1.17694,4.33197 0.22664,2.08302 0.11691,3.60764 l -3.80882,1.57364 -0.0746,-0.18051 q 0.54567,-2.10625 0.4548,-4.37216 -0.10892,-2.25845 -0.85472,-4.06358 -0.9248,-2.23835 -2.16891,-3.20362 -1.24411,-0.96527 -2.79652,-0.32388 -1.19138,0.49223 -1.52172,1.43175 -0.33034,0.93952 0.0419,3.06805 0.13586,0.78917 0.40402,2.052 0.2607,1.24477 0.40325,2.3059 0.39233,2.9444 -0.49912,4.62293 -0.91696,1.66794 -2.90259,2.48831 -1.24554,0.51461 -2.55549,0.46411 -1.31741,-0.0685 -2.61643,-0.75754 -1.26606,-0.66034 -2.39483,-2.01138 -1.15428,-1.36164 -1.95229,-3.29312 -0.7458,-1.80513 -1.05524,-3.83281 -0.33494,-2.03827 -0.21029,-3.52678 l 3.6283,-1.49906 0.0746,0.18051 q -0.41974,1.69497 -0.30141,3.82273 0.10028,2.13523 0.83862,3.9223 0.76818,1.85928 2.01974,2.8426 1.23352,0.99078 2.64152,0.40905 1.24553,-0.5146 1.55664,-1.55183 0.31855,-1.01919 0.0146,-2.88008 -0.1712,-1.02816 -0.4319,-2.27294 -0.26816,-1.26282 -0.40834,-2.11361 -0.43546,-2.58845 0.35276,-4.41453 0.80628,-1.83353 3.00854,-2.74341 z m 14.52345,18.68239 1.4021,3.39364 -2.23835,0.92479 q 2.06235,1.15552 3.43325,2.42766 1.3709,1.27214 2.15399,3.16752 1.31261,3.17702 0.11201,5.74405 -1.21865,2.57449 -4.97332,4.12575 l -13.08716,5.40706 -1.40211,-3.39364 11.48061,-4.74329 q 1.53436,-0.63393 2.57582,-1.23328 1.02341,-0.59189 1.6057,-1.38191 0.5929,-0.81554 0.63322,-1.74091 0.0403,-0.92536 -0.57122,-2.40556 -0.54443,-1.31775 -1.87177,-2.58675 -1.3348,-1.28705 -2.95917,-2.20088 l -15.05475,6.21998 -1.40211,-3.39363 z m 8.3828,20.28962 1.84958,4.47671 -5.48587,11.73392 3.00382,1.33713 6.73312,-2.78184 1.4021,3.39364 -28.08775,11.60466 -1.4021,-3.39364 18.01514,-7.44309 -14.14035,-5.6328 -1.76754,-4.27815 13.18515,5.52027 z m -13.27662,34.56377 1.58109,3.82686 -3.51999,1.45431 -1.5811,-3.82686 z m 23.62833,-9.50863 1.40211,3.39364 -20.16326,8.33059 -1.40211,-3.39364 z m 2.93694,7.62 q 0.64799,0.85231 1.28031,1.92241 0.62485,1.05206 0.9903,1.93657 1.27531,3.08677 0.27836,5.37947 -0.99695,2.29269 -4.66136,3.80667 l -10.72245,4.43006 0.94717,2.29251 -2.8521,1.17836 -0.94717,-2.29251 -5.79445,2.39402 -1.40211,-3.39363 5.79446,-2.39402 -2.89371,-7.00389 2.8521,-1.17837 2.89371,7.00389 9.18809,-3.79613 q 1.58851,-0.6563 2.46124,-1.10141 0.85467,-0.43765 1.45189,-1.19157 0.55798,-0.69545 0.61754,-1.5231 0.0341,-0.83824 -0.55512,-2.26429 -0.34307,-0.83036 -0.95063,-1.63597 -0.62562,-0.79815 -0.95216,-1.12816 l -0.0746,-0.18051 z m 0.70731,17.67047 q 2.76184,-1.14107 5.47803,0.42055 2.70873,1.54358 4.34203,5.4968 0.9248,2.23836 1.17695,4.33197 0.22663,2.08302 0.1169,3.60764 l -3.80882,1.57364 -0.0746,-0.18052 q 0.54568,-2.10625 0.45481,-4.37215 -0.10893,-2.25845 -0.85473,-4.06358 -0.92479,-2.23835 -2.1689,-3.20362 -1.24411,-0.96527 -2.79652,-0.32388 -1.19138,0.49223 -1.52173,1.43175 -0.33033,0.93952 0.0419,3.06805 0.13586,0.78917 0.40401,2.052 0.2607,1.24477 0.40326,2.3059 0.39232,2.9444 -0.49912,4.62293 -0.91696,1.66793 -2.90259,2.48831 -1.24554,0.51461 -2.5555,0.46411 -1.3174,-0.0685 -2.61643,-0.75754 -1.26605,-0.66034 -2.39482,-2.01139 -1.15429,-1.36163 -1.9523,-3.29311 -0.7458,-1.80513 -1.05523,-3.83281 -0.33495,-2.03827 -0.21029,-3.52679 l 3.6283,-1.49906 0.0746,0.18052 q -0.41974,1.69496 -0.30141,3.82273 0.10027,2.13523 0.83862,3.9223 0.76817,1.85928 2.01974,2.8426 1.23352,0.99078 2.64152,0.40905 1.24553,-0.5146 1.55664,-1.55184 0.31855,-1.01918 0.0146,-2.88007 -0.17121,-1.02816 -0.4319,-2.27294 -0.26816,-1.26283 -0.40834,-2.11361 -0.43546,-2.58846 0.35276,-4.41453 0.80628,-1.83353 3.00853,-2.74341 z m 14.47871,18.57408 1.39464,3.37559 -2.1481,0.8875 q 0.49332,0.3245 1.37361,0.8695 0.85477,0.53441 1.47801,1.12222 0.76571,0.67688 1.49142,1.66613 0.74376,0.9818 1.35531,2.462 1.12616,2.72574 0.10412,5.36693 -1.02203,2.64118 -3.81997,3.79717 -2.29251,0.94716 -4.10324,0.55412 -1.83624,-0.40363 -3.40181,-1.8912 -1.57302,-1.50562 -2.92833,-3.96762 -1.35532,-2.462 -2.72284,-5.36274 l -0.52349,0.21628 q -1.15528,0.47731 -1.7419,1.20573 -0.59407,0.71036 -0.71407,1.6475 -0.11686,0.89359 0.15638,1.96412 0.27324,1.07054 0.72818,2.17166 0.55189,1.3358 1.59159,2.8293 1.02166,1.50096 2.41298,2.97599 l 0.0746,0.18051 -3.44779,1.42448 q -0.68096,-0.88095 -1.78152,-2.62403 -1.10055,-1.74309 -1.85381,-3.56627 -0.88004,-2.13005 -1.16786,-3.84967 -0.31334,-1.73021 0.0578,-3.23602 0.36051,-1.48029 1.43213,-2.62042 1.07163,-1.14012 3.02116,-1.94559 z m -3.56945,5.42654 -5.61394,2.31944 q 0.73168,1.5151 1.78475,3.55253 1.04563,2.01937 1.89575,3.10516 1.01928,1.29061 2.27669,1.82773 1.23936,0.54458 2.77372,-0.0893 1.73292,-0.71597 2.18487,-2.12838 0.43389,-1.40496 -0.45361,-3.55306 -0.73834,-1.78708 -2.03585,-2.98387 -1.31556,-1.18934 -2.81238,-2.0502 z m -16.00748,23.35061 30.92055,-1.32119 1.96892,4.76553 -22.83608,20.88876 -1.5811,-3.82686 20.16426,-18.19993 -27.13004,1.34005 z m 85.91533,-163.74496 2.70358,2.48461 -8.4054,9.14616 q -0.95155,1.03541 -1.73636,2.09144 -0.79919,1.0428 -1.02583,1.89557 -0.23754,0.92234 0.0901,1.80701 0.32762,0.88466 1.49246,1.95516 1.13608,1.04407 2.8008,1.51291 1.65151,0.48321 3.59377,0.65006 0.26082,-0.37041 0.64173,-0.84267 0.36769,-0.45789 0.76417,-0.88931 l 9.44947,-10.28224 2.70357,2.48461 -8.40539,9.14616 q -0.97799,1.06418 -1.74958,2.10582 -0.79919,1.04281 -1.02583,1.89558 -0.23753,0.92234 0.1033,1.79263 0.32761,0.88466 1.49246,1.95516 1.10732,1.01763 2.73123,1.50202 1.60952,0.47116 3.49659,0.64033 l 11.02217,-11.99355 2.70358,2.48462 -14.76231,16.0633 -2.70358,-2.48461 1.63879,-1.78322 q -2.23028,-0.11321 -4.02327,-0.6734 -1.80736,-0.5734 -3.23105,-1.88178 -1.63941,-1.50663 -2.14112,-3.24097 -0.51609,-1.74756 0.0464,-3.48535 -2.90815,-0.12608 -4.81501,-0.76439 -1.92009,-0.62394 -3.45882,-2.03805 -2.64606,-2.43175 -2.41699,-5.19219 0.20147,-2.75928 2.84468,-5.63543 z m 13.96176,37.02305 0.14381,0.13216 q 0.47183,0.69888 0.99419,1.28504 0.49477,0.58734 1.27133,1.301 1.25113,1.1498 2.9314,1.65945 1.66705,0.52403 3.55179,0.63801 l 10.48031,-11.40394 2.70358,2.48461 -14.76231,16.0633 -2.70358,-2.48461 2.18065,-2.37282 q -2.80009,-0.18593 -4.51145,-0.77721 -1.73896,-0.59011 -3.01884,-1.76634 -0.70466,-0.64758 -0.98139,-0.98148 -0.28995,-0.31951 -0.83019,-1.00168 z m 10.04853,19.63304 3.04873,2.8018 -2.57713,2.80425 -3.04872,-2.80181 z m 17.40629,-18.59391 2.70357,2.48461 -14.76231,16.0633 -2.70357,-2.48461 z m 8.28331,7.61243 2.84739,2.61678 -9.63449,10.48357 10.6849,9.81951 9.63449,-10.48357 2.84739,2.61678 -19.67868,21.41294 -2.84739,-2.61678 7.71817,-8.39836 -10.6849,-9.81951 -7.71816,8.39837 -2.84739,-2.61678 z" />
    </g>
    <g
       aria-label="Viha"
       transform="matrix(0.08630209,0.25011256,-0.25011256,0.08630209,63.206195,139.31574)"
       style="font-style:normal;font-weight:normal;font-size:40px;line-height:1.25;font-family:sans-serif;letter-spacing:0px;word-spacing:0px;fill:#000000;fill-opacity:1;stroke:none"
       id="flowRoot4732" />
    <g
       aria-label="Armastus"
       transform="matrix(0.05517211,-0.25876703,0.25876703,0.05517211,178.42871,376.00737)"
       style="font-style:normal;font-weight:normal;font-size:40px;line-height:1.25;font-family:sans-serif;letter-spacing:0px;word-spacing:0px;fill:#000000;fill-opacity:1;stroke:none"
       id="flowRoot4816" />
    <g
       aria-label="Depresioon"
       transform="matrix(0.15414542,-0.21504308,0.21504308,0.15414542,68.280166,380.06868)"
       style="font-style:normal;font-weight:normal;font-size:40px;line-height:1.25;font-family:sans-serif;letter-spacing:0px;word-spacing:0px;fill:#000000;fill-opacity:1;stroke:none"
       id="flowRoot4824" />
    <g
       aria-label="Põlgus"
       transform="matrix(0.23311888,-0.12513963,0.12513963,0.23311888,-28.074447,323.53646)"
       style="font-style:normal;font-weight:normal;font-size:40px;line-height:1.25;font-family:sans-serif;letter-spacing:0px;word-spacing:0px;fill:#000000;fill-opacity:1;stroke:none"
       id="flowRoot4836" />
    <g
       aria-label="Häbi"
       transform="matrix(0.26455802,-0.00365958,0.00365958,0.26455802,-169.06885,370.79038)"
       style="font-style:normal;font-weight:normal;font-size:40px;line-height:1.25;font-family:sans-serif;letter-spacing:0px;word-spacing:0px;fill:#000000;fill-opacity:1;stroke:none"
       id="flowRoot4844" />
    <g
       aria-label="Kadedus"
       transform="matrix(0.24274972,0.10524689,-0.10524689,0.24274972,-199.90431,198.64022)"
       style="font-style:normal;font-weight:normal;font-size:40px;line-height:1.25;font-family:sans-serif;letter-spacing:0px;word-spacing:0px;fill:#000000;fill-opacity:1;stroke:none"
       id="flowRoot4852" />
    <g
       aria-label="Uhkus"
       transform="matrix(0.18222939,0.19182489,-0.19182489,0.18222939,80.649099,320.1354)"
       style="font-style:normal;font-weight:normal;font-size:40px;line-height:1.25;font-family:sans-serif;letter-spacing:0px;word-spacing:0px;fill:#000000;fill-opacity:1;stroke:none"
       id="flowRoot4860">
      <path
         id="path882"
         style=""
         d="m -520.06445,-399.60444 q 0,2.98828 -2.48047,4.90234 -2.46094,1.91406 -6.73828,1.91406 -2.42188,0 -4.45313,-0.5664 -2.01172,-0.58594 -3.3789,-1.26953 v -4.1211 h 0.19531 q 1.73828,1.3086 3.86719,2.08985 2.1289,0.76171 4.08203,0.76171 2.42187,0 3.78906,-0.78125 1.36719,-0.78125 1.36719,-2.46093 0,-1.28907 -0.74219,-1.95313 -0.74219,-0.66406 -2.85156,-1.13281 -0.78125,-0.17578 -2.05078,-0.41016 -1.25,-0.23437 -2.28516,-0.50781 -2.87109,-0.76172 -4.08203,-2.22656 -1.19141,-1.48438 -1.19141,-3.63281 0,-1.34766 0.54688,-2.53907 0.5664,-1.1914 1.69922,-2.1289 1.09375,-0.91797 2.77343,-1.44532 1.69922,-0.54687 3.78907,-0.54687 1.95312,0 3.94531,0.48828 2.01172,0.46875 3.33984,1.15234 v 3.92579 h -0.19531 q -1.40625,-1.03516 -3.41797,-1.73829 -2.01172,-0.72265 -3.94531,-0.72265 -2.01172,0 -3.39844,0.78125 -1.38672,0.76172 -1.38672,2.28515 0,1.34766 0.83985,2.03125 0.82031,0.6836 2.65625,1.11329 1.01562,0.23437 2.26562,0.46875 1.26953,0.23437 2.10938,0.42968 2.55859,0.58594 3.94531,2.01172 1.38672,1.44531 1.38672,3.82813 z m -22.8125,6.28906 h -3.67188 v -2.42188 q -1.85547,1.46485 -3.55469,2.2461 -1.69921,0.78125 -3.75,0.78125 -3.4375,0 -5.35156,-2.08985 -1.91406,-2.10937 -1.91406,-6.17187 v -14.16016 h 3.67187 v 12.42188 q 0,1.66015 0.15625,2.85156 0.15625,1.17188 0.66407,2.01172 0.52734,0.85937 1.36718,1.25 0.83985,0.39062 2.44141,0.39062 1.42578,0 3.10547,-0.74218 1.69922,-0.74219 3.16406,-1.89453 v -16.28907 h 3.67188 z m -21.95313,0 h -4.84375 l -8.75,-9.55078 -2.38281,2.26562 v 7.28516 h -3.67188 v -30.39063 h 3.67188 v 19.49219 l 10.60547,-10.91797 h 4.6289 l -10.13671,10.07813 z m -26.875,0 h -3.67187 v -12.42188 q 0,-1.5039 -0.17578,-2.8125 -0.17579,-1.32812 -0.64454,-2.07031 -0.48828,-0.82031 -1.40625,-1.21094 -0.91796,-0.41015 -2.38281,-0.41015 -1.5039,0 -3.14453,0.74219 -1.64062,0.74218 -3.14453,1.89453 v 16.28906 h -3.67188 v -30.39063 h 3.67188 v 10.9961 q 1.71875,-1.42578 3.55469,-2.22656 1.83593,-0.80079 3.76953,-0.80079 3.53515,0 5.39062,2.12891 1.85547,2.12891 1.85547,6.13281 z m -25.35156,-11.67969 q 0,3.16406 -0.70313,5.52735 -0.68359,2.34375 -2.26562,3.90625 -1.50391,1.48437 -3.51563,2.16796 -2.01171,0.6836 -4.6875,0.6836 -2.73437,0 -4.76562,-0.72266 -2.03125,-0.72265 -3.41797,-2.1289 -1.58203,-1.60157 -2.28516,-3.86719 -0.68359,-2.26563 -0.68359,-5.56641 v -17.40234 h 3.86719 v 17.59765 q 0,2.36329 0.3125,3.73047 0.33203,1.36719 1.09375,2.48047 0.85937,1.26953 2.32422,1.91406 1.48437,0.64454 3.55468,0.64454 2.08985,0 3.55469,-0.625 1.46485,-0.64454 2.34375,-1.9336 0.76172,-1.11328 1.07422,-2.53906 0.33203,-1.44531 0.33203,-3.57422 v -17.69531 h 3.86719 z m 169.44712,99.50202 q 1.16904,2.75012 -0.36494,5.48202 -1.51601,2.72425 -5.45245,4.39759 -2.22886,0.94746 -4.3198,1.22085 -2.08061,0.24776 -3.60626,0.1535 l -1.61222,-3.79265 0.17975,-0.0764 q 2.11168,0.52428 4.37655,0.41041 2.25722,-0.13183 4.05469,-0.89591 2.22885,-0.94746 3.18145,-2.2013 0.95259,-1.25385 0.29548,-2.79967 -0.50429,-1.18632 -1.44712,-1.50712 -0.94283,-0.32078 -3.06746,0.073 -0.78776,0.14387 -2.0478,0.42482 -1.24206,0.27332 -2.30169,0.42664 -2.94027,0.42218 -4.62775,-0.45218 -1.67716,-0.89999 -2.51765,-2.87719 -0.52722,-1.24026 -0.49001,-2.55066 0.0552,-1.31803 0.73094,-2.62398 0.64747,-1.27269 1.98699,-2.41512 1.34984,-1.16804 3.27313,-1.98561 1.79746,-0.76408 3.82189,-1.09407 2.03477,-0.35562 3.52448,-0.24607 l 1.5358,3.6129 -0.17975,0.0764 q -1.69913,-0.40252 -3.82559,-0.2626 -2.1341,0.12194 -3.91359,0.87837 -1.85139,0.78701 -2.82196,2.04849 -0.9782,1.24351 -0.38222,2.64554 0.52721,1.24024 1.56756,1.5408 1.02236,0.3082 2.88008,-0.0146 1.02636,-0.18163 2.26843,-0.45495 1.26004,-0.28096 2.10936,-0.42977 2.5839,-0.4617 4.41788,0.30795 1.84162,0.78763 2.7738,2.98053 z m -18.53404,14.7123 -3.37924,1.43648 -0.94746,-2.22885 q -1.13452,2.07396 -2.39268,3.4577 -1.25816,1.38374 -3.1455,2.18602 -3.16354,1.34478 -5.74262,0.1703 -2.58673,-1.19246 -4.17601,-4.93119 l -5.53959,-13.03162 3.37923,-1.43647 4.85956,11.43187 q 0.64947,1.52785 1.25936,2.56317 0.60224,1.01736 1.39814,1.59161 0.8215,0.58458 1.74723,0.61551 0.92573,0.0309 2.39965,-0.5956 1.31214,-0.55778 2.56761,-1.89792 1.27345,-1.34779 2.17074,-2.98135 l -6.37244,-14.99086 3.37923,-1.43648 z m -23.29513,9.90249 -3.37924,1.43648 -0.89398,-2.10304 q -0.92108,1.87713 -2.20486,3.25054 -1.28378,1.3734 -3.13517,2.1604 -3.59492,1.52817 -6.89261,-0.33831 -3.27972,-1.87413 -5.36566,-6.78121 -1.085,-2.55239 -1.21414,-4.85321 -0.11117,-2.30846 0.5331,-4.2377 0.64157,-1.88564 1.95366,-3.2923 1.33006,-1.4143 3.0736,-2.15546 1.58176,-0.67239 2.94922,-0.85045 1.3598,-0.19603 3.00589,-0.0681 l -3.69815,-8.69972 3.37924,-1.43647 z m -5.48046,-3.50655 -4.89776,-11.52174 q -1.62586,-0.0305 -2.80367,0.19434 -1.17781,0.22477 -2.45401,0.76727 -2.83999,1.20725 -3.58127,3.85685 -0.74128,2.64961 0.80216,6.28048 1.52052,3.57696 3.53745,4.92674 2.00927,1.33182 4.70547,0.1857 1.43797,-0.61127 2.64446,-1.86693 1.19886,-1.27363 2.04717,-2.82271 z m -20.04574,2.91843 -14.79313,6.28839 q 0.78701,1.85139 1.93256,2.99856 1.13792,1.12921 2.48295,1.59737 1.30144,0.46546 2.76102,0.35435 1.47755,-0.11875 3.02337,-0.77586 2.04911,-0.87105 3.77235,-2.5586 1.73359,-1.71317 2.27815,-2.87845 l 0.17974,-0.0764 1.56637,3.68481 q -1.40196,1.44486 -2.97515,2.68661 -1.57318,1.24175 -3.53242,2.0746 -4.99695,2.12415 -8.94711,0.61992 -3.95781,-1.5222 -6.07432,-6.50118 -2.09358,-4.92505 -0.64552,-8.95745 1.46602,-4.04004 5.85183,-5.90439 4.06227,-1.72683 7.26377,-0.28636 3.21946,1.43284 5.07618,5.80067 z m -4.38964,-1.19008 q -1.14878,-2.65262 -3.09784,-3.54314 -1.93105,-0.89816 -4.62725,0.24796 -2.71417,1.15376 -3.65185,3.44118 -0.91971,2.27977 -0.12683,4.74412 z m -14.94887,20.84966 -3.37924,1.43648 -0.89397,-2.10304 q -0.92109,1.87713 -2.20486,3.25054 -1.28378,1.3734 -3.13517,2.16041 -3.59493,1.52816 -6.89261,-0.33832 -3.27973,-1.87413 -5.36567,-6.7812 -1.08499,-2.5524 -1.21413,-4.85321 -0.11118,-2.30846 0.53309,-4.2377 0.64157,-1.88565 1.95367,-3.29231 1.33005,-1.4143 3.07359,-2.15545 1.58177,-0.67239 2.94922,-0.85046 1.35981,-0.19603 3.0059,-0.0681 l -3.69815,-8.69972 3.37923,-1.43647 z m -5.48046,-3.50654 -4.89776,-11.52175 q -1.62585,-0.0304 -2.80367,0.19434 -1.1778,0.22478 -2.454,0.76727 -2.84,1.20725 -3.58128,3.85686 -0.74127,2.6496 0.80217,6.28048 1.52052,3.57695 3.53744,4.92674 2.00928,1.33181 4.70548,0.18569 1.43797,-0.61126 2.64446,-1.86693 1.19886,-1.27363 2.04716,-2.8227 z m -17.34733,13.21037 -3.36126,1.42883 -0.90926,-2.13898 q -0.31947,0.49659 -0.85552,1.38236 -0.5257,0.86016 -1.10716,1.48933 -0.66907,0.77254 -1.6509,1.50824 -0.9742,0.75369 -2.44812,1.38023 -2.71418,1.15377 -5.36559,0.15858 -2.65142,-0.99517 -3.83574,-3.78124 -0.97039,-2.28278 -0.59575,-4.0974 0.38498,-1.84025 1.85659,-3.42083 1.48958,-1.58822 3.93769,-2.96845 2.44812,-1.38023 5.33484,-2.77712 l -0.22158,-0.52127 q -0.48901,-1.15037 -1.22334,-1.72957 -0.71636,-0.58683 -1.65467,-0.69731 -0.89473,-0.10778 -1.96243,0.1763 -1.06771,0.28409 -2.16417,0.75018 -1.33012,0.56542 -2.81299,1.62022 -1.49052,1.03684 -2.95135,2.44306 l -0.17975,0.0764 -1.45939,-3.43315 q 0.87399,-0.68986 2.60582,-1.80805 1.73183,-1.11819 3.54726,-1.88991 2.12101,-0.90162 3.83762,-1.20687 1.72695,-0.33088 3.23644,0.0249 1.48388,0.34547 2.63482,1.40547 1.15094,1.06 1.97615,3.00125 z m -5.46248,-3.51419 -2.37629,-5.59011 q -1.5076,0.74702 -3.53425,1.82071 -2.00864,1.06607 -3.08575,1.92716 -1.28021,1.03233 -1.80454,2.29512 -0.53197,1.24482 0.1175,2.77267 0.73352,1.72557 2.15045,2.16316 1.40928,0.41961 3.54827,-0.48964 1.77949,-0.75644 2.96306,-2.06603 1.17592,-1.32756 2.02155,-2.83304 z m -12.79976,11.27726 -4.61948,1.96369 -15.65293,-7.41675 -1.45299,3.97083 3.85861,9.07719 -3.55898,1.51288 -11.37717,-26.76424 3.55898,-1.51288 5.93691,13.9663 7.05876,-19.4906 4.31391,-1.8338 -6.60457,17.66339 z m 100.88352,58.41202 -2.81003,3.04115 -2.79727,-2.58469 2.81002,-3.04115 z m 18.54683,17.45644 -2.49191,2.69686 -16.02337,-14.80564 2.49191,-2.69686 z m -14.5357,-0.58685 q 2.0083,1.85568 3.08475,3.91402 1.0897,2.044 1.29185,4.01247 0.19216,2.06563 -0.3607,3.81515 -0.5672,1.73626 -1.9192,3.19946 -1.25921,1.36277 -2.53024,2.07641 -1.25667,0.72689 -2.71637,1.21301 l 0.58688,0.86139 -2.33285,2.52472 -22.32083,-20.62451 2.49191,-2.69686 7.97582,7.36968 q 0.11471,-1.99482 0.70624,-3.81497 0.5772,-1.83341 2.04848,-3.42571 2.62445,-2.8403 6.31595,-2.4609 3.70474,0.36506 7.67831,4.03664 z m -2.49968,2.84923 q -2.869,-2.65096 -5.22136,-3.06944 -2.3667,-0.43173 -4.31516,1.67699 -1.08689,1.17628 -1.68388,2.85845 -0.61133,1.66889 -0.76235,3.444 l 9.1808,8.48309 q 1.57681,-0.67042 2.53316,-1.30252 0.96961,-0.64644 1.93721,-1.69363 2.06776,-2.23782 1.77099,-4.85218 -0.29786,-2.64195 -3.43941,-5.54476 z m -7.22095,23.98898 -2.47866,2.68252 -1.70706,-1.57732 q -0.0875,0.58396 -0.21276,1.61169 -0.12635,1.00013 -0.39834,1.81252 -0.29304,0.97907 -0.88641,2.05295 -0.57903,1.08712 -1.66592,2.26341 -2.00148,2.1661 -4.82773,2.34684 -2.82626,0.18074 -5.04974,-1.87375 -1.82181,-1.68337 -2.22496,-3.49188 -0.40424,-1.83611 0.28897,-3.88141 0.70646,-2.05966 2.37239,-4.32308 1.66592,-2.26341 3.72494,-4.72203 l -0.416,-0.38439 q -0.91808,-0.84831 -1.82543,-1.07508 -0.89409,-0.24111 -1.79508,0.0433 -0.86013,0.26894 -1.71716,0.96622 -0.85703,0.69728 -1.66557,1.57232 -0.98086,1.06153 -1.90015,2.63203 -0.93363,1.55723 -1.68858,3.43913 l -0.13255,0.14345 -2.7399,-2.53167 q 0.51384,-0.9878 1.63413,-2.71826 1.12029,-1.73048 2.45903,-3.17933 1.56407,-1.69271 3.00414,-2.67563 1.43898,-1.01052 2.96151,-1.30562 1.49492,-0.294 2.97952,0.2002 1.48459,0.49422 3.03386,1.92575 z m -6.42354,-0.96255 -4.46129,-4.12225 q -1.06816,1.29996 -2.47556,3.11085 -1.39411,1.79657 -2.02288,3.02388 -0.74371,1.4668 -0.70354,2.83354 0.0258,1.35348 1.24514,2.48014 1.37712,1.27246 2.84881,1.08993 1.45734,-0.19577 3.03466,-1.90283 1.31223,-1.42015 1.85402,-3.10012 0.52744,-1.69324 0.68064,-3.41314 z m -13.96572,-14.49993 -2.63771,2.85466 -2.79727,-2.58469 2.63771,-2.85466 z m -5.47425,5.92449 -2.63771,2.85466 -2.79727,-2.58469 2.63771,-2.85465 z m 9.24195,27.52663 -2.62446,2.84032 -10.45751,-9.66277 -9.84834,10.65834 10.45751,9.66277 -2.62445,2.84031 -21.35971,-19.73644 2.62445,-2.84031 8.37748,7.74082 9.84834,-10.65834 -8.37748,-7.74082 2.62445,-2.84031 z m 150.07594,-36.60104 q 2.88232,0.7887 4.07384,3.68639 1.19669,2.87886 0.0678,7.00454 -0.6392,2.33599 -1.72164,4.14573 -1.09611,1.78574 -2.11631,2.92403 l -3.97496,-1.08768 0.0516,-0.18838 q 1.72097,-1.33127 3.0364,-3.1785 1.2966,-1.85238 1.81208,-3.73625 0.63921,-2.336 0.2465,-3.8609 -0.39271,-1.52491 -2.01284,-1.96823 -1.24335,-0.34022 -2.07975,0.20039 -0.83641,0.5406 -1.84527,2.45147 -0.37574,0.70715 -0.93686,1.86981 -0.55599,1.14382 -1.09294,2.0701 -1.49247,2.56825 -3.22498,3.34964 -1.74618,0.75738 -3.81844,0.19035 -1.29988,-0.35569 -2.3047,-1.19762 -0.99967,-0.86077 -1.60494,-2.20085 -0.59675,-1.29725 -0.66207,-3.05656 -0.079,-1.7833 0.47255,-3.79904 0.51549,-1.88387 1.51225,-3.67655 0.98308,-1.81667 1.99298,-2.91728 l 3.78658,1.03613 -0.0516,0.18839 q -1.36961,1.08318 -2.57875,2.83799 -1.22799,1.74965 -1.73832,3.61469 -0.53095,1.94039 -0.1434,3.48413 0.36872,1.53858 1.83814,1.94066 1.29986,0.35569 2.18088,-0.27395 0.87586,-0.61081 1.77487,-2.26824 0.49411,-0.91775 1.05009,-2.06157 0.56113,-1.16267 0.97119,-1.92118 1.24044,-2.31322 2.98167,-3.27446 1.76006,-0.95609 4.05838,-0.3272 z m 0.0452,23.66349 -0.96912,3.54167 -2.33599,-0.6392 q 0.92318,2.17629 1.22826,4.02145 0.30507,1.84517 -0.23619,3.82323 -0.90726,3.31561 -3.42818,4.61023 -2.53976,1.28948 -6.45821,0.21726 l -13.65806,-3.73728 0.96912,-3.54168 11.98141,3.2785 q 1.6013,0.43816 2.79169,0.6019 1.17157,0.15858 2.11565,-0.10956 0.96809,-0.28183 1.56652,-0.9888 0.59844,-0.70697 1.02114,-2.25174 0.37631,-1.37523 0.10375,-3.19124 -0.2674,-1.83485 -0.99226,-3.5519 l -15.71148,-4.29916 0.96911,-3.54168 z m -9.07324,23.7603 q 5.3502,1.46398 7.19077,4.57977 1.84057,3.11579 0.45906,8.16457 -0.45878,1.676645 -1.14184,3.210917 -0.65908,1.520597 -1.51507,2.946806 l -3.61704,-0.989736 0.0515,-0.188384 q 0.57622,-0.773796 1.58152,-2.523634 1.02413,-1.744695 1.53962,-3.628559 0.49486,-1.80852 0.38633,-3.11392 -0.10853,-1.3054 -0.7005,-2.1761 -0.55429,-0.86041 -1.5131,-1.42651 -0.95879,-0.56609 -2.23983,-0.91663 l -1.92155,-0.52579 q 0.84287,1.95182 1.0813,3.59651 0.22476,1.62069 -0.39383,3.88133 -1.03097,3.767742 -4.35202,5.248411 -3.33474,1.456676 -8.28932,0.100943 -2.71277,-0.742302 -4.4658,-2.031957 -1.76672,-1.313647 -2.83761,-3.024127 -1.00249,-1.59051 -1.25779,-3.54356 -0.27415,-1.95819 0.2001,-3.69135 0.50002,-1.82736 1.21186,-2.94877 0.69816,-1.14541 1.82802,-2.31445 l -0.8424,-0.4735 0.90726,-3.31561 z m -4.36008,2.61379 -11.47277,-3.13932 q -1.02713,1.23765 -1.62594,2.38999 -0.6125,1.12836 -0.94241,2.33404 -0.799,2.91999 0.70144,5.13274 1.50044,2.21276 5.23051,3.23343 3.54167,0.969114 5.70925,0.22577 2.16757,-0.74333 2.95627,-3.62565 0.4227,-1.54477 0.26141,-3.24935 -0.17499,-1.72856 -0.81776,-3.30165 z m 0.15436,22.154423 -0.96912,3.541673 -29.31302,-8.020983 0.96911,-3.541673 z m -12.99664,6.203838 q 5.14296,1.407281 7.39779,4.859173 2.25484,3.451885 1.04344,7.878988 -1.2217,4.464769 -4.91991,6.287722 -3.69303,1.804109 -8.836,0.396828 -5.14298,-1.407283 -7.40296,-4.840328 -2.27367,-3.45705 -1.05197,-7.921818 1.2114,-4.427103 4.92844,-6.244892 3.69819,-1.822956 8.84117,-0.415673 z m -1.00005,3.654707 q -4.08801,-1.11861 -6.50424,-0.05858 -2.43506,1.054878 -3.21345,3.899524 -0.78869,2.882322 0.77004,5.030022 1.54506,2.123718 5.63307,3.242328 3.95612,1.082523 6.4477,0.04311 2.47275,-1.044557 3.25629,-3.908041 0.77323,-2.825809 -0.80434,-4.978673 -1.59127,-2.176859 -5.58507,-3.269692 z m -19.49816,-7.258991 q 2.80678,0.990763 3.91714,2.631042 1.11036,1.640276 0.53816,3.731374 -0.27836,1.017292 -0.87342,1.785934 -0.6139,0.763484 -1.52228,1.345141 -1.05235,0.66376 -1.61806,1.177185 -0.57941,0.489431 -0.78045,1.224142 -0.26806,0.979608 0.44566,1.701382 0.71371,0.721782 2.12484,1.188904 l -0.67529,2.467867 q -2.80341,-0.929096 -3.888,-2.663562 -1.08457,-1.734474 -0.55362,-3.674862 0.25774,-0.941933 0.87164,-1.70542 0.60021,-0.787479 1.49491,-1.393126 1.01466,-0.674071 1.59586,-1.244016 0.5675,-0.59393 0.73761,-1.215606 0.2629,-0.96078 -0.45935,-1.725384 -0.71708,-0.783449 -2.02033,-1.200803 z m 5.25608,23.712402 q 1.86504,0.510334 3.28591,1.607848 1.40719,1.073534 2.25559,2.56113 1.05365,1.847508 1.2471,4.026611 0.17461,2.17395 -0.65017,5.188143 l -1.02067,3.730067 10.45548,2.860955 -1.02066,3.730067 -28.05084,-7.675608 2.08257,-7.610844 q 0.69075,-2.52438 1.60345,-4.157821 0.89385,-1.638596 2.16926,-2.747549 1.51197,-1.307457 3.35039,-1.735874 1.84356,-0.447258 4.29259,0.222875 z m -0.96766,3.906562 q -1.45059,-0.396926 -2.66358,-0.182112 -1.21298,0.214824 -2.17469,1.06537 -0.83143,0.744457 -1.39594,1.845445 -0.5782,1.076996 -1.06275,2.847837 l -1.01036,3.692382 11.20904,3.067152 0.86086,-3.146065 q 0.61859,-2.260646 0.60959,-3.781799 -0.0278,-1.526317 -0.67097,-2.654004 -0.66198,-1.132855 -1.56249,-1.764006 -0.89536,-0.649979 -2.13871,-0.9902 z m 129.11712,-194.434231 0.69032,3.60641 -12.20038,2.3353 q -1.4771,0.28274 -2.72931,0.7014 -1.2714,0.42233 -1.91222,1.02225 -0.71389,0.6338 -0.92497,1.60883 -0.23027,0.97872 0.0451,2.41744 0.28273,1.47709 1.32013,2.94893 1.03739,1.47184 2.45192,2.73229 l 15.99861,-3.06233 0.69031,3.60639 -21.4274,4.10148 -0.69031,-3.6064 2.37869,-0.45531 q -1.72348,-1.42006 -2.85514,-3.07271 -1.13166,-1.65266 -1.49517,-3.55177 -0.66461,-3.47213 1.0775,-5.69474 1.74213,-2.22262 5.67464,-2.97536 z m -6.20239,25.56725 q 5.23696,-1.00242 8.78192,1.10304 3.54498,2.10547 4.40787,6.61347 0.87023,4.54637 -1.64662,7.81214 -2.52052,3.24659 -7.75747,4.24901 -5.23697,1.00242 -8.77826,-1.08386 -3.56416,-2.10179 -4.43439,-6.64816 -0.86289,-4.508 1.67314,-7.77745 2.51685,-3.26577 7.75381,-4.26819 z m 0.71235,3.7215 q -4.16272,0.7968 -5.86483,2.81289 -1.72128,2.01978 -1.16683,4.91641 0.5618,2.935 2.9073,4.17634 2.32265,1.22582 6.48537,0.42902 4.02842,-0.77109 5.80725,-2.80187 1.75966,-2.02712 1.20154,-4.94294 -0.55078,-2.87745 -2.91547,-4.11511 -2.38755,-1.25317 -6.45433,-0.47474 z m 3.85546,20.14214 q 5.23695,-1.00242 8.78192,1.10305 3.54497,2.10546 4.40786,6.61346 0.87024,4.54637 -1.64662,7.81215 -2.52051,3.24658 -7.75747,4.249 -5.23696,1.00242 -8.77826,-1.08385 -3.56416,-2.1018 -4.43439,-6.64817 -0.86289,-4.508 1.67315,-7.77744 2.51684,-3.26578 7.75381,-4.2682 z m 0.71234,3.7215 q -4.16272,0.79679 -5.86482,2.8129 -1.72129,2.01977 -1.16684,4.91639 0.5618,2.93501 2.9073,4.17634 2.32265,1.22583 6.48537,0.42903 4.02843,-0.77109 5.80726,-2.80188 1.75965,-2.02712 1.20153,-4.94293 -0.55078,-2.87744 -2.91546,-4.11511 -2.38755,-1.25318 -6.45434,-0.47474 z m -10.19803,24.22416 0.77844,4.0668 -3.74068,0.71601 -0.77844,-4.0668 z m 25.05868,-4.55792 0.69031,3.6064 -21.42739,4.10148 -0.69031,-3.6064 z m -4.48786,10.00652 q 2.935,-0.5618 5.28126,1.5146 2.34259,2.05721 3.14673,6.25828 0.45531,2.3787 0.28088,4.48022 -0.19729,2.086 -0.61166,3.55732 l -4.04761,0.77476 -0.0367,-0.19183 q 0.95846,-1.9533 1.32555,-4.19112 0.3479,-2.23414 -0.0193,-4.15245 -0.45531,-2.37868 -1.47966,-3.57462 -1.02435,-1.19594 -2.67409,-0.88016 -1.26607,0.24235 -1.77876,1.09615 -0.5127,0.8538 -0.57653,3.01368 -0.0258,0.80037 -0.0173,2.09132 0.005,1.27178 -0.0692,2.33988 -0.20836,2.9631 -1.41943,4.42784 -1.23392,1.44923 -3.34405,1.85313 -1.32363,0.25336 -2.5966,-0.0598 -1.27665,-0.33232 -2.4104,-1.26869 -1.10723,-0.90167 -1.94095,-2.45226 -0.85658,-1.56611 -1.24947,-3.61869 -0.36719,-1.9183 -0.26214,-3.96676 0.0822,-2.06398 0.50391,-3.49693 l 3.85578,-0.73805 0.0367,0.19183 q -0.75233,1.57579 -1.06471,3.68382 -0.33157,2.11171 0.0319,4.01082 0.37821,1.97585 1.40623,3.19097 1.00884,1.21879 2.50511,0.93239 1.32362,-0.25336 1.83714,-1.20675 0.51719,-0.9342 0.59406,-2.81819 0.0393,-1.04157 0.0345,-2.31334 -0.008,-1.29096 0.0255,-2.15255 0.0945,-2.62312 1.23413,-4.25317 1.15884,-1.63371 3.49916,-2.08167 z m -0.18607,21.57197 3.02195,15.78761 q 1.97584,-0.37821 3.3391,-1.25561 1.34408,-0.87374 2.08577,-2.08954 0.72985,-1.17376 0.92953,-2.62388 0.19602,-1.4693 -0.11976,-3.11904 -0.41859,-2.18686 -1.7041,-4.22768 -1.30834,-2.05631 -2.33232,-2.83472 l -0.0367,-0.19183 3.93252,-0.75274 q 1.11614,1.67551 1.9976,3.4755 0.88146,1.79997 1.28169,3.89092 1.02078,5.33286 -1.28386,8.87619 -2.32382,3.547 -7.63751,4.5641 -5.25614,1.0061 -8.89171,-1.26099 -3.63924,-2.28628 -4.53517,-6.96693 -0.82985,-4.33536 1.25434,-7.16037 2.08052,-2.84419 6.74198,-3.73645 z m -2.0904,4.03924 q -2.83542,0.56259 -4.11752,2.27958 -1.28577,1.69778 -0.73499,4.57523 0.55445,2.89663 2.5922,4.2963 2.03408,1.38049 4.6103,1.12601 z m -0.9744,18.70022 0.0367,0.19183 q -0.0376,0.8424 0.0325,1.62441 0.0472,0.7665 0.24552,1.80238 0.31945,1.66893 1.36501,3.07954 1.02638,1.41429 2.47193,2.62904 l 15.21211,-2.91179 0.69031,3.6064 -21.4274,4.10147 -0.69031,-3.60639 3.16519,-0.60586 q -2.13771,-1.81803 -3.1596,-3.31273 -1.04473,-1.51021 -1.37152,-3.21749 -0.17992,-0.93997 -0.20315,-1.37301 -0.0424,-0.42938 -0.0697,-1.29912 z m 10.15737,17.74273 q 2.60889,-0.49938 4.91977,-0.16616 2.29169,0.33688 4.04867,1.41247 1.66188,0.99436 2.77885,2.57028 1.09412,1.56041 1.4613,3.47871 0.31946,1.668919 0.21569,3.100678 -0.10745,1.412578 -0.60673,2.95981 l 8.97765,-1.718435 0.69031,3.606407 -29.33079,5.614285 -0.69031,-3.606407 2.2444,-0.429607 q -1.48392,-1.207393 -2.63109,-2.837197 -1.17002,-1.645314 -1.55924,-3.678708 -0.74171,-3.874966 1.78203,-6.585256 2.5009,-2.7258 7.69949,-3.72087 z m 0.8083,3.70313 q -3.87496,0.74171 -5.5399,2.43253 -1.66494,1.69081 -1.13987,4.433976 0.29743,1.553821 1.26993,2.998308 0.97249,1.444497 2.34131,2.673922 l 12.14283,-2.324292 q 0.39685,-1.666828 0.43692,-2.80799 0.0364,-1.160346 -0.23163,-2.560703 -0.57648,-3.011731 -2.933,-4.310621 -2.35653,-1.29888 -6.34659,-0.53513 z m 4.48066,20.499722 3.02195,15.787602 q 1.97585,-0.378203 3.33911,-1.255609 1.34408,-0.873737 2.08577,-2.089532 0.72984,-1.17377 0.92953,-2.623889 0.19602,-1.4693 -0.11976,-3.119039 -0.41859,-2.186859 -1.7041,-4.227664 -1.30834,-2.056327 -2.33232,-2.83473 l -0.0367,-0.191827 3.93252,-0.752734 q 1.11614,1.675511 1.99759,3.475484 0.88147,1.79998 1.2817,3.89092 1.02078,5.332874 -1.28386,8.876196 -2.32382,3.547003 -7.63751,4.564111 -5.25614,1.006092 -8.89171,-1.261007 -3.63924,-2.286271 -4.53518,-6.966925 -0.82984,-4.335354 1.25435,-7.160361 2.08051,-2.844202 6.74198,-3.736465 z m -2.09039,4.039237 q -2.83543,0.56259 -4.11752,2.279579 -1.28578,1.697788 -0.735,4.575229 0.55446,2.896633 2.59221,4.296304 2.03408,1.380498 4.6103,1.126002 z m 2.73752,20.535096 q 3.89415,-0.74539 7.38614,0.356047 3.48832,1.082245 5.77373,3.568001 1.58306,1.72534 2.58284,4.039576 0.99611,2.295066 1.74884,6.227583 l 1.38062,7.212804 -28.56347,5.467411 -1.36593,-7.136078 q -0.80047,-4.181889 -0.65661,-6.754811 0.121,-2.588433 0.84927,-4.497671 1.26426,-3.264642 3.98307,-5.475355 2.71879,-2.210712 6.8815,-3.007507 z m 0.70252,3.981897 q -3.35702,0.642577 -5.435,2.253367 -2.07797,1.61079 -2.9573,4.185289 -0.63603,1.871698 -0.63699,3.840575 -0.0202,1.97255 0.48657,4.61981 l 0.68297,3.568034 22.04126,-4.218977 -0.68297,-3.568033 q -0.52508,-2.743169 -1.31714,-4.699454 -0.79573,-1.975478 -2.21595,-3.473466 -1.76958,-1.868611 -4.19676,-2.497739 -2.43085,-0.648311 -5.76869,-0.0094 z m 48.96739,-199.244892 q 2.46468,-1.68973 5.44594,-0.72619 2.97022,0.94744 5.38885,4.47531 1.36945,1.99753 2.05086,3.99314 0.65426,1.99055 0.86352,3.50471 l -3.39901,2.33028 -0.11044,-0.16109 q 0.0964,-2.17365 -0.46303,-4.3713 -0.57554,-2.18659 -1.67993,-3.7975 -1.36945,-1.99751 -2.78689,-2.68339 -1.41744,-0.68588 -2.80282,0.26391 -1.06319,0.7289 -1.19123,1.71654 -0.12804,0.98764 0.67809,2.99246 0.29678,0.74376 0.82132,1.92338 0.51351,1.1635 0.87331,2.1719 0.99521,2.79874 0.47176,4.62579 -0.55061,1.822 -2.32259,3.03683 -1.11153,0.76203 -2.40342,0.98466 -1.30291,0.20652 -2.7167,-0.1977 -1.37559,-0.38304 -2.7603,-1.47022 -1.41189,-1.09226 -2.59359,-2.81593 -1.10439,-1.6109 -1.82815,-3.53012 -0.75092,-1.92428 -0.93808,-3.40624 l 3.23791,-2.21983 0.11044,0.16109 q -0.0586,1.74518 0.49899,3.80199 0.54149,2.06786 1.63484,3.66265 1.13753,1.65923 2.56601,2.36122 1.41238,0.71302 2.66888,-0.14841 1.11152,-0.76203 1.20045,-1.84126 0.1,-1.06311 -0.58377,-2.82033 -0.38097,-0.97019 -0.89447,-2.1337 -0.52456,-1.17961 -0.83836,-1.98274 -0.96348,-2.4416 -0.57165,-4.39155 0.40796,-1.961 2.37326,-3.30836 z m 18.08644,15.25919 2.07626,3.0285 -1.99751,1.36945 q 2.25735,0.70207 3.86253,1.66179 1.60518,0.95973 2.7648,2.65118 1.94374,2.83519 1.30238,5.59557 -0.65747,2.77144 -4.00815,5.06858 l -11.67905,8.00687 -2.07626,-3.0285 10.24535,-7.02395 q 1.36927,-0.93874 2.26356,-1.74129 0.8782,-0.79151 1.28373,-1.68524 0.41062,-0.92088 0.25791,-1.83444 -0.15271,-0.91358 -1.05831,-2.23452 -0.80621,-1.17595 -2.36814,-2.14166 -1.57297,-0.98182 -3.35169,-1.5384 l -13.43494,9.21066 -2.07626,-3.0285 z m 12.58363,18.70027 q 0.81086,0.69915 1.65161,1.61463 0.8297,0.89937 1.37086,1.68871 1.88851,2.75464 1.38939,5.20439 -0.49911,2.44975 -3.76925,4.69168 l -9.56876,6.5601 1.40257,2.04584 -2.54522,1.74495 -1.40258,-2.04584 -5.171,3.54511 -2.07627,-3.02851 5.171,-3.5451 -4.28505,-6.2503 2.54523,-1.74495 4.28505,6.2503 8.1995,-5.62137 q 1.4176,-0.97187 2.17888,-1.58848 0.74518,-0.60557 1.1728,-1.46711 0.4014,-0.79616 0.2878,-1.61813 -0.14075,-0.82704 -1.01323,-2.09965 -0.50802,-0.74102 -1.26963,-1.4029 -0.77772,-0.65083 -1.16567,-0.90584 l -0.11044,-0.16109 z m 4.36134,17.13838 q 2.46468,-1.68972 5.44595,-0.72618 2.97022,0.94743 5.38885,4.47531 1.36944,1.99752 2.05086,3.99313 0.65425,1.99055 0.86352,3.50472 l -3.39901,2.33028 -0.11044,-0.16109 q 0.0964,-2.17365 -0.46303,-4.3713 -0.57554,-2.1866 -1.67994,-3.7975 -1.36945,-1.99752 -2.78688,-2.68339 -1.41744,-0.68588 -2.80282,0.2639 -1.06319,0.7289 -1.19124,1.71655 -0.12804,0.98763 0.6781,2.99246 0.29678,0.74376 0.82132,1.92337 0.51351,1.1635 0.87331,2.1719 0.99521,2.79874 0.47176,4.6258 -0.55061,1.82199 -2.3226,3.03682 -1.11153,0.76203 -2.40341,0.98467 -1.30292,0.20651 -2.7167,-0.1977 -1.37559,-0.38304 -2.76031,-1.47024 -1.41188,-1.09225 -2.59358,-2.81591 -1.1044,-1.61091 -1.82816,-3.53012 -0.75091,-1.92429 -0.93808,-3.40625 l 3.23792,-2.21983 0.11044,0.1611 q -0.0586,1.74518 0.49898,3.80198 0.5415,2.06786 1.63485,3.66266 1.13753,1.65923 2.566,2.3612 1.41238,0.71303 2.66889,-0.1484 1.11151,-0.76203 1.20045,-1.84125 0.1,-1.06312 -0.58377,-2.82034 -0.38098,-0.97019 -0.89448,-2.1337 -0.52455,-1.17961 -0.83835,-1.98274 -0.96349,-2.4416 -0.57165,-4.39155 0.40795,-1.961 2.37325,-3.30836 z m 18.02018,15.16254 2.06522,3.01239 -1.91698,1.31423 q 0.54996,0.21499 1.52423,0.56531 0.94711,0.34526 1.67883,0.79083 0.88958,0.50311 1.8049,1.32011 0.93142,0.80594 1.83703,2.12688 1.66763,2.43246 1.21634,5.22831 -0.45128,2.79584 -2.94818,4.50765 -2.04585,1.40259 -3.89873,1.39413 -1.88003,-0.0135 -3.72038,-1.14356 -1.85138,-1.14614 -3.68841,-3.27303 -1.83703,-2.12689 -3.77712,-4.68043 l -0.46716,0.32028 q -1.03098,0.70681 -1.45354,1.54117 -0.43361,0.81824 -0.35638,1.75987 0.0712,0.89838 0.56083,1.88883 0.48959,0.99046 1.16328,1.97312 0.81725,1.19206 2.14443,2.43711 1.31107,1.25608 2.97836,2.41003 l 0.11044,0.16109 -3.07683,2.1094 q -0.84904,-0.72034 -2.28758,-2.19689 -1.43853,-1.47655 -2.55397,-3.10355 -1.30319,-1.90087 -1.94183,-3.52324 -0.6658,-1.62743 -0.61548,-3.17747 0.0453,-1.5229 0.85675,-2.8607 0.81151,-1.33781 2.55128,-2.53055 z m -2.36476,6.04947 -5.00991,3.43467 q 1.03036,1.33014 2.48356,3.10448 1.44218,1.75821 2.49924,2.64379 1.26507,1.05082 2.60661,1.31512 1.32543,0.27534 2.6947,-0.6634 1.54647,-1.06022 1.69526,-2.53569 0.13269,-1.46444 -1.18155,-3.38141 -1.09334,-1.59479 -2.6111,-2.49607 -1.53385,-0.89022 -3.17681,-1.42149 z m 15.94882,13.76464 2.07626,3.0285 -10.24534,7.02395 q -1.15985,0.79516 -2.16185,1.64787 -1.01304,0.8366 -1.42547,1.61665 -0.43869,0.8454 -0.31819,1.78105 0.12049,0.93566 1.01505,2.24049 0.87247,1.27261 2.38931,2.10347 1.50072,0.8419 3.35584,1.44083 0.33737,-0.30234 0.81465,-0.67695 0.46116,-0.36357 0.94443,-0.69489 l 11.51796,-7.89642 2.07626,3.02849 -10.24534,7.02395 q -1.19208,0.81726 -2.17796,1.65892 -1.01304,0.8366 -1.42548,1.61665 -0.43868,0.8454 -0.30207,1.77001 0.12048,0.93565 1.01504,2.24048 0.85039,1.2404 2.32396,2.07723 1.46252,0.82073 3.26335,1.40953 l 13.43492,-9.21065 2.07627,3.0285 -17.99379,12.33609 -2.07627,-3.0285 1.99753,-1.36945 q -2.14783,-0.61139 -3.76912,-1.56007 -1.63234,-0.9648 -2.72569,-2.55959 -1.25901,-1.83642 -1.35825,-3.63915 -0.11028,-1.81883 0.82827,-3.38582 -2.80548,-0.7762 -4.52019,-1.82661 -1.73082,-1.03936 -2.91252,-2.76303 -2.03208,-2.96406 -1.1887,-5.60247 0.81623,-2.64347 4.03804,-4.85226 z m 5.28708,39.21332 0.11043,0.16109 q 0.30276,0.78701 0.68008,1.47555 0.35021,0.68345 0.94659,1.55333 0.96082,1.40149 2.48364,2.27561 1.50669,0.88516 3.31765,1.41966 l 12.774455,-8.75785 2.076261,3.02849 -17.993786,12.3361 -2.07626,-3.0285 2.65799,-1.82225 q -2.68673,-0.81026 -4.22151,-1.7709 -1.56193,-0.96571 -2.54484,-2.39941 -0.54115,-0.78934 -0.73579,-1.17688 -0.21072,-0.37651 -0.58392,-1.16259 z m 24.719336,4.55491 2.330277,3.39901 -5.072833,6.93516 7.112308,10.37422 8.297664,-2.23133 2.219834,3.23792 -29.972166,7.713345 -2.91561,-4.252783 z m -4.807405,13.19429 -8.893231,12.277582 14.669215,-3.852562 z m -418.011451,-394.05537 -3.32367,-1.51422 0.9636,-2.11506 q -0.582,0.0997 -1.59729,0.30251 -0.98941,0.19312 -1.84611,0.18915 -1.0216,0.0282 -2.22725,-0.19913 -1.21375,-0.20956 -2.67119,-0.87355 -2.68381,-1.22271 -3.7403,-3.8503 -1.05649,-2.62759 0.19861,-5.38251 1.02838,-2.25724 2.61975,-3.20633 1.61725,-0.95875 3.77676,-0.94073 2.1773,0.0261 4.84849,0.89968 2.67118,0.87355 5.65083,2.05934 l 0.23483,-0.51543 q 0.51823,-1.13751 0.44953,-2.07024 -0.0509,-0.92464 -0.60308,-1.6913 -0.5247,-0.73269 -1.45524,-1.32834 -0.93055,-0.59564 -2.01474,-1.08958 -1.31525,-0.59921 -3.0946,-0.9806 -1.77124,-0.39917 -3.79489,-0.527 l -0.17774,-0.081 1.54661,-3.39476 q 1.09901,0.17875 3.09322,0.70096 1.99421,0.52221 3.78934,1.34005 2.09729,0.9555 3.48165,2.01544 1.41022,1.05028 2.16716,2.40386 0.74726,1.32773 0.74267,2.89242 -0.005,1.56469 -0.8791,3.48424 z m -1.09688,-6.40196 2.5183,-5.52759 q -1.56902,-0.60751 -3.7295,-1.37718 -2.14272,-0.76156 -3.50517,-0.97449 -1.62591,-0.2471 -2.91136,0.21894 -1.27736,0.44826 -1.96564,1.95902 -0.77735,1.70627 -0.14326,3.04682 0.6422,1.32279 2.75726,2.28638 1.75959,0.80165 3.52472,0.79024 1.77324,-0.0292 3.45465,-0.42214 z m -20.76467,-3.55787 -3.34144,-1.52232 5.14996,-11.30402 q 0.6235,-1.36856 1.00607,-2.63228 0.39066,-1.28147 0.2718,-2.15121 -0.10425,-0.94893 -0.77766,-1.68498 -0.66532,-0.75382 -1.99834,-1.36113 -1.36857,-0.6235 -3.16925,-0.62829 -1.80069,-0.005 -3.647,0.42035 l -6.75326,14.8232 -3.34144,-1.52231 12.5996,-27.65575 3.34144,1.52231 -4.55886,10.00655 q 2.1552,-0.58491 4.15791,-0.55246 2.00272,0.0324 3.7623,0.83408 3.21703,1.46564 4.0229,4.17222 0.80588,2.70657 -0.8541,6.35017 z m -12.47557,-33.67106 -3.768,-1.71665 1.579,-3.46586 3.768,1.71665 z m -10.77232,23.07963 -3.34144,-1.52232 9.04482,-19.85313 3.34144,1.52232 z m 4.92984,-29.71198 -21.69036,22.07611 -4.69224,-2.13772 2.42377,-30.85372 3.768,1.71665 -2.30734,27.06494 18.9079,-19.50194 z" />
    </g>
  </g>
</svg>
