<?xml version="1.0" standalone="no"?>
<!DOCTYPE svg PUBLIC "-//W3C//DTD SVG 20010904//EN"
 "http://www.w3.org/TR/2001/REC-SVG-20010904/DTD/svg10.dtd">
<svg version="1.0" xmlns="http://www.w3.org/2000/svg"
 width="1280.000000pt" height="1278.000000pt" viewBox="0 0 1280.000000 1278.000000"
 preserveAspectRatio="xMidYMid meet">
<metadata>
Created by potrace 1.15, written by Peter Selinger 2001-2017
</metadata>
<g transform="translate(0.000000,1278.000000) scale(0.100000,-0.100000)"
fill="#000000" stroke="none">
<path d="M6270 12774 c-65 -13 -156 -49 -209 -85 -85 -57 -173 -172 -212 -279
-29 -79 -31 -97 -36 -250 -2 -91 -6 -171 -8 -177 -3 -9 -12 -8 -33 4 -27 16
-31 16 -63 -3 l-34 -20 1 -85 c1 -81 3 -88 54 -193 30 -59 59 -109 64 -111 70
-17 67 -12 97 -140 23 -97 29 -143 29 -242 l0 -121 -96 -104 -95 -103 -92 -22
c-132 -33 -563 -93 -663 -93 -110 0 -316 -46 -449 -100 -159 -65 -204 -72
-395 -65 -137 6 -192 4 -325 -14 -316 -41 -346 -43 -600 -30 -270 13 -466 5
-690 -31 -71 -11 -164 -25 -205 -30 -41 -5 -219 -27 -395 -49 -411 -51 -517
-58 -875 -61 -162 -1 -389 -3 -505 -4 -194 -2 -222 -4 -364 -34 -85 -18 -159
-36 -164 -41 -5 -5 -6 -28 -2 -50 6 -38 9 -41 40 -41 19 0 41 -8 51 -17 18
-19 25 -20 139 -29 43 -3 85 -13 107 -25 34 -18 56 -20 218 -20 125 0 189 -4
211 -13 28 -12 22 -13 -83 -20 -135 -8 -193 -30 -203 -76 -8 -36 7 -66 43 -83
49 -26 81 -28 184 -12 130 19 253 19 308 0 23 -8 67 -15 96 -15 59 0 105 23
178 88 21 19 63 46 93 59 50 23 63 25 130 19 41 -4 174 -32 295 -62 541 -134
788 -171 1073 -159 104 4 228 16 319 31 140 23 165 25 395 19 135 -3 341 -10
456 -16 280 -14 286 -14 550 -5 127 4 242 4 258 -1 25 -7 40 -36 143 -268 65
-147 126 -299 139 -350 44 -167 86 -309 175 -600 89 -287 90 -291 99 -439 9
-130 8 -164 -9 -275 -12 -76 -20 -178 -20 -257 0 -142 -10 -238 -40 -409 -11
-60 -29 -193 -40 -295 -12 -102 -38 -275 -60 -385 -38 -190 -67 -398 -90 -640
-6 -60 -10 -237 -10 -391 0 -245 3 -305 25 -465 14 -101 34 -227 45 -279 11
-52 40 -243 65 -425 68 -490 73 -527 106 -683 l31 -143 -16 -247 c-9 -136 -18
-285 -21 -332 -3 -47 -10 -186 -15 -310 l-9 -225 50 -285 c28 -157 75 -406
105 -555 91 -452 123 -681 124 -910 2 -225 -33 -407 -89 -470 -10 -11 -21 -42
-25 -68 -7 -58 7 -90 59 -130 l35 -28 107 17 c69 10 132 14 178 10 38 -3 102
-8 140 -12 62 -5 76 -3 128 21 66 31 66 30 42 170 -11 63 -23 97 -42 122 -25
33 -27 44 -35 182 -4 80 -15 209 -25 286 -15 115 -18 213 -18 545 1 428 13
602 55 770 36 149 53 340 47 540 -4 102 -11 217 -17 255 -25 158 -10 537 31
800 10 66 21 188 24 270 8 187 30 435 56 625 32 227 39 316 49 610 11 300 51
669 63 580 12 -83 46 -557 62 -845 4 -60 19 -202 35 -315 46 -319 50 -361 60
-585 5 -115 18 -268 29 -340 39 -261 54 -650 30 -803 -5 -37 -12 -150 -16
-252 -6 -200 11 -391 47 -540 40 -160 53 -343 54 -770 1 -335 -2 -429 -17
-545 -10 -77 -21 -206 -25 -286 -8 -138 -10 -149 -35 -182 -19 -25 -31 -59
-42 -122 -24 -140 -24 -139 43 -170 51 -24 64 -26 132 -20 41 3 105 8 141 12
41 3 108 -1 172 -12 l107 -16 35 28 c52 40 66 72 59 130 -4 26 -15 57 -25 68
-39 43 -49 91 -65 322 -26 365 -12 512 96 1048 28 138 73 376 101 530 51 275
51 283 50 465 -1 102 -6 232 -11 290 -5 58 -17 236 -26 395 l-16 290 31 148
c17 82 49 260 72 395 22 136 54 330 70 432 17 102 34 226 39 275 4 50 20 176
35 280 26 183 26 202 22 530 -5 384 -27 611 -92 935 -38 189 -70 404 -80 540
-4 47 -15 126 -26 175 -30 146 -39 238 -39 388 0 92 -7 188 -20 272 -20 123
-21 219 -5 385 1 19 38 148 80 285 102 330 163 536 180 610 21 92 36 130 153
395 99 222 111 245 138 253 16 4 132 5 259 1 262 -9 276 -9 555 5 113 6 316
14 451 16 230 6 256 4 395 -19 91 -15 215 -27 319 -31 285 -12 532 25 1073
159 121 30 254 58 295 62 67 6 80 4 130 -19 30 -13 72 -40 93 -59 73 -65 119
-88 178 -88 29 0 73 7 96 15 55 19 178 19 308 0 103 -16 135 -14 184 12 36 17
51 47 43 83 -10 46 -68 68 -203 76 -105 7 -111 8 -83 20 22 9 86 13 211 13
162 0 184 2 218 20 22 12 64 22 107 25 113 9 119 10 138 29 9 9 30 17 46 17
22 0 31 6 41 29 19 48 10 63 -45 77 -212 50 -279 59 -480 60 -908 6 -898 6
-1380 65 -176 22 -354 44 -395 49 -41 5 -133 19 -205 30 -223 36 -429 45 -700
31 -253 -13 -259 -13 -590 30 -133 18 -188 20 -325 14 -191 -7 -236 0 -395 65
-143 58 -338 100 -467 100 -57 0 -191 11 -298 25 -183 24 -204 29 -340 81
-144 55 -146 56 -212 126 -39 42 -69 83 -72 101 -16 77 -6 233 23 352 30 128
27 123 97 140 5 2 34 52 63 111 49 98 54 117 59 191 l4 82 -33 21 c-19 11 -42
18 -51 15 -10 -3 -26 -8 -37 -11 -17 -5 -18 5 -24 168 -5 162 -7 179 -36 259
-37 101 -130 224 -209 277 -94 63 -171 84 -317 88 -71 1 -141 0 -155 -2z"/>
</g>
</svg>
